<?xml version="1.0" encoding="UTF-8"?>
<svg width="148px" height="148px" viewBox="0 0 148 148" version="1.1" xmlns="http://www.w3.org/2000/svg" xmlns:xlink="http://www.w3.org/1999/xlink">
    <!-- Generator: Sketch 52.5 (67469) - http://www.bohemiancoding.com/sketch -->
    <title>Artboard</title>
    <desc>Created with Sketch.</desc>
    <defs>
        <polygon id="path-1" points="0.0442475524 0.115029371 22.3736643 0.115029371 22.3736643 25.2298545 0.0442475524 25.2298545"></polygon>
        <polygon id="path-3" points="0 0.0906111888 23.5430979 0.0906111888 23.5430979 24.5164014 0 24.5164014"></polygon>
    </defs>
    <g id="Artboard" stroke="none" stroke-width="1" fill="none" fill-rule="evenodd">
        <g id="Group-11" transform="translate(6.000000, 61.000000)">
            <path d="M99.1300434,12.7989315 C99.1300434,6.53698741 93.8505329,1.46147692 87.5909664,1.46147692 C81.3340154,1.46147692 76.0495119,6.53698741 76.0495119,12.7989315 C76.0495119,19.0608755 81.3340154,24.1340084 87.5909664,24.1340084 C93.8505329,24.1340084 99.1300434,19.0608755 99.1300434,12.7989315 M74.6842811,12.7989315 C74.6842811,5.86198042 80.6502112,0.237952448 87.5909664,0.237952448 C94.5269664,0.237952448 100.495274,5.86198042 100.495274,12.7989315 C100.495274,19.7346937 94.5269664,25.3575329 87.5909664,25.3575329 C80.6502112,25.3575329 74.6842811,19.7346937 74.6842811,12.7989315" id="Fill-1" fill="#EFEFEF"></path>
            <polygon id="Fill-3" fill="#EFEFEF" points="50.3152923 16.4720727 47.1009846 23.412828 43.8892923 16.4720727 36.7569007 1.4814014 35.3308028 1.4814014 47.0289427 26.0612615 47.1708867 26.0612615 58.8714042 1.4814014 57.4464951 1.4814014"></polygon>
            <g id="Group-7" transform="translate(113.412587, 0.145273)">
                <mask id="mask-2" fill="white">
                    <use xlink:href="#path-1"></use>
                </mask>
                <g id="Clip-6"></g>
                <polygon id="Fill-5" fill="#EFEFEF" mask="url(#mask-2)" points="21.0434084 0.653323077 21.0481636 12.6710154 21.1180657 22.173421 0.188569231 0.115029371 0.0442475524 0.115029371 0.0442475524 25.2224839 1.37238741 25.2224839 1.37238741 12.6710154 1.30010769 3.17146294 22.2322196 25.2298545 22.3736881 25.2298545 22.3736881 0.653323077"></polygon>
            </g>
            <g id="Group-10" transform="translate(0.000000, 0.858559)">
                <mask id="mask-4" fill="white">
                    <use xlink:href="#path-3"></use>
                </mask>
                <g id="Clip-9"></g>
                <path d="M5.1937972,16.6081916 L18.3605944,16.6205552 L15.0255035,9.54807972 L11.7691119,2.58354825 L8.56098601,9.53191189 L5.1937972,16.6081916 Z M1.42621678,24.5164014 L-0.000118881119,24.5164014 L11.7018252,0.0906111888 L11.8437692,0.0906111888 L23.5430979,24.5164014 L22.1181888,24.5164014 L18.8565664,17.6600517 L4.68783916,17.6600517 L1.42621678,24.5164014 Z" id="Fill-8" fill="#EFEFEF" mask="url(#mask-4)"></path>
            </g>
        </g>
    </g>
</svg>