<?xml version="1.0" encoding="UTF-8"?>
<svg width="148px" height="148px" viewBox="0 0 148 148" version="1.1" xmlns="http://www.w3.org/2000/svg" xmlns:xlink="http://www.w3.org/1999/xlink">
    <!-- Generator: Sketch 52.5 (67469) - http://www.bohemiancoding.com/sketch -->
    <title>Artboard</title>
    <desc>Created with Sketch.</desc>
    <defs>
        <polygon id="path-1" points="0.117369508 0.123004812 27.1407321 0.123004812 27.1407321 24.057965 0.117369508 24.057965"></polygon>
        <polygon id="path-3" points="0 0.0498409101 15.6526581 0.0498409101 15.6526581 15.5706584 0 15.5706584"></polygon>
        <polygon id="path-5" points="0.166337089 0.0498409101 16.6903285 0.0498409101 16.6903285 15.5706584 0.166337089 15.5706584"></polygon>
        <polygon id="path-7" points="0 49.1860465 135 49.1860465 135 0 0 0"></polygon>
    </defs>
    <g id="Artboard" stroke="none" stroke-width="1" fill="none" fill-rule="evenodd">
        <g id="Group-22" transform="translate(7.000000, 49.000000)">
            <g id="Group-3" transform="translate(12.558140, 0.000000)">
                <mask id="mask-2" fill="white">
                    <use xlink:href="#path-1"></use>
                </mask>
                <g id="Clip-2"></g>
                <path d="M16.7992389,6.61003953 C16.5767531,1.86663536 11.6752628,-0.326203448 7.73356395,0.660491018 C5.82609231,1.13790241 3.89788188,2.30636512 2.55815556,4.03357843 C0.149302751,7.13891043 -0.613884997,12.0001735 2.24773724,17.538046 C3.70874404,14.0653595 5.61853843,11.4827565 7.93182686,9.70043168 C10.4347509,7.77169631 13.1694516,6.768402 16.7992389,6.61003953 Z M1.08072362,22.3056859 C1.32345051,20.8170123 1.64315981,19.3612063 2.09957927,17.9641638 C-2.03125737,9.76185108 0.964752269,3.78524483 4.97281523,1.42773561 C8.11183962,-0.418498557 12.1243822,-0.312093585 14.6677883,1.78911411 C15.978978,2.87225365 16.9913632,4.48575806 17.1089936,6.63510529 C20.6335937,6.71611251 23.2315844,7.94516464 24.9369772,9.83904034 C26.1302046,11.1642055 26.8918992,12.7780419 27.0888348,14.5570468 C27.5366269,18.6007677 25.083476,23.0624726 19.8511604,24.057965 L19.7882803,23.8549489 C24.8196785,22.8355528 27.2184108,18.563916 26.7158683,14.5382889 C26.5619034,13.3042569 26.147957,12.0669048 25.4627472,11.0241029 C23.8074593,8.50507723 20.620155,6.95448621 17.2105308,6.96228813 C17.1965943,6.96228813 17.1683895,6.94834427 17.1683895,6.96228813 C17.1652372,10.6766682 14.8806513,12.6130395 11.1181357,13.4176338 L10.4060484,13.0902849 C14.5626011,12.6160275 16.8493439,10.6281967 16.8116822,6.97341002 C13.8885072,6.91165862 11.002828,7.80688797 8.49691761,9.64083825 C5.99482317,11.4719666 3.8710044,14.2389938 2.46624121,17.9241582 C3.88742952,20.2092921 5.72770746,21.9585832 8.24805204,22.8385407 L8.22515641,23.2165191 C5.76072362,22.2538944 3.7591808,20.6963314 2.36337677,18.359572 C1.84474092,19.7858302 1.53482033,21.3166674 1.32145959,22.8954782 L1.08072362,22.3056859 Z" id="Fill-1" fill="#EFEFEF" mask="url(#mask-2)"></path>
            </g>
            <path d="M35.3635141,25.2417448 C39.6359236,27.5095211 41.5913514,30.5238469 42.3039479,33.5430281 C42.8777292,35.974044 42.6863575,38.4003721 41.9405587,40.5049086 C41.399646,42.0313255 40.5944503,43.3384151 39.7734042,44.3638953 C38.5939742,45.836736 37.5019713,46.6842431 35.8188352,47.4845362 C34.2763497,48.2175244 32.1282155,48.9285798 29.8612875,48.8741666 C25.143234,48.7616567 20.0606234,45.6905737 19.8610764,40.1628586 C23.1465955,42.5094922 26.8785927,43.4176073 30.8713693,42.6261877 C32.3714761,42.3290077 33.7836553,41.7579199 34.9836072,40.8613572 C36.1832255,39.9644596 37.1085499,38.8420401 37.7632511,37.5985721 C38.3497126,36.4846913 38.650368,35.2735364 38.805701,34.0397791 C39.2406669,30.5924913 38.3500463,27.3290366 35.3635141,25.2417448 M14.6511628,33.0933236 L14.9161132,32.7641654 C15.8406034,35.1009209 17.2547848,37.3464296 19.1473119,39.1243193 C19.1301268,38.5006599 19.0462036,36.4977505 19.3667135,36.0512271 C19.7109155,35.5713861 20.2998797,35.7424948 20.1547242,36.744368 C19.9218081,37.6141427 19.8350485,38.625894 19.8554036,39.7600333 C23.2755669,42.3321888 26.9583448,42.8446778 29.9725733,42.3936339 C33.8558994,41.8130028 37.1367468,39.5676616 38.1489976,35.5981741 C39.0180952,32.1898965 38.3850838,27.9627415 36.4693653,26.745057 L32.416858,24.2142555 L32.8256292,24.0697674 C39.9098837,26.0085529 43.0185467,31.4135452 42.9039239,36.7058602 C42.7709481,42.8456823 38.5147227,47.8980768 32.5039513,48.979812 C31.5567701,49.1505858 30.5949066,49.215212 29.6423863,49.1740253 C24.5137264,48.9503451 19.7094139,45.703298 19.1653312,39.569001 C17.162853,37.7649929 15.7019549,35.5754043 14.6511628,33.0933236" id="Fill-4" fill="#EFEFEF"></path>
            <g id="Group-8" transform="translate(0.000000, 20.930233)">
                <mask id="mask-4" fill="white">
                    <use xlink:href="#path-3"></use>
                </mask>
                <g id="Clip-7"></g>
                <path d="M11.025932,3.39760789 C11.8806377,4.45987113 12.2850164,6.12722309 12.2850164,7.80913989 C12.2850164,9.10978123 12.1394858,10.4890728 11.6088717,11.4683164 C10.0994422,14.254249 6.60442042,14.5740284 4.72740371,12.2667939 C3.84293786,11.1794468 3.29319222,9.54753596 3.29319222,7.81577499 C3.29319222,6.09340026 3.66846475,4.39869875 4.55849019,3.33190422 C6.19202943,1.37454987 9.39827943,1.3747117 11.025932,3.39760789 M13.4425563,2.05650863 C14.9178107,3.46784284 15.6526581,5.61583493 15.6526581,7.80881623 C15.6526581,9.5048124 15.2188463,11.1810651 14.2876145,12.4575935 C11.6379778,16.0903914 5.68136446,16.6296146 2.38681504,13.6211634 C0.834216933,12.2031941 -4.90552326e-05,10.0665302 -4.90552326e-05,7.80881623 C-4.90552326e-05,5.56275414 0.861033794,3.49276492 2.39940589,2.07592843 C5.28434411,-0.581347998 10.5994786,-0.662749341 13.4425563,2.05650863" id="Fill-6" fill="#EFEFEF" mask="url(#mask-4)"></path>
            </g>
            <path d="M50.8250501,24.3161467 C51.6822201,25.3905143 52.0877647,27.0768654 52.0877647,28.7779474 C52.0877647,30.0934093 51.9416506,31.4884176 51.4096705,32.4788195 C49.8957249,35.2964973 46.3907899,35.6199206 44.5083612,33.2863956 C43.6213452,32.1866583 43.0700145,30.5361522 43.0700145,28.7846581 C43.0700145,27.0426572 43.4463691,25.3286449 44.3389607,24.2496944 C45.9772099,22.2700363 49.1927045,22.2702 50.8250501,24.3161467 M53.2486422,22.9597659 C54.7281501,24.387182 55.4651163,26.5596501 55.4651163,28.77762 C55.4651163,30.4929418 55.0302177,32.1882951 54.0961369,33.4793693 C51.4388606,37.1535623 45.4652365,37.6989298 42.161188,34.6561978 C40.6037853,33.222071 39.7674419,31.0610602 39.7674419,28.77762 C39.7674419,26.5059644 40.6308435,24.4123881 42.1736511,22.979407 C45.0669075,20.2918514 50.397367,20.2095225 53.2486422,22.9597659" id="Fill-9" fill="#EFEFEF"></path>
            <g id="Group-13" transform="translate(118.255814, 20.930233)">
                <mask id="mask-6" fill="white">
                    <use xlink:href="#path-5"></use>
                </mask>
                <g id="Clip-12"></g>
                <path d="M11.8061357,3.39760789 C12.7084229,4.45987113 13.1351407,6.12722309 13.1351407,7.80913989 C13.1351407,9.10978123 12.9815085,10.4890728 12.4215277,11.4683164 C10.8277228,14.254249 7.13830544,14.5740284 5.15696763,12.2667939 C4.22291825,11.1794468 3.64274083,9.54753596 3.64274083,7.81577499 C3.64274083,6.09340026 4.03890482,4.39869875 4.97847806,3.33190422 C6.70312923,1.37454987 10.0876989,1.3747117 11.8061357,3.39760789 M14.3572937,2.05650863 C15.9146756,3.46784284 16.690432,5.61583493 16.690432,7.80881623 C16.690432,9.5048124 16.2322973,11.1810651 15.2490511,12.4575935 C12.4520815,16.0903914 6.16403548,16.6296146 2.68590554,13.6211634 C1.04670151,12.2031941 0.166337089,10.0665302 0.166337089,7.80881623 C0.166337089,5.56275414 1.07535651,3.49276492 2.69902469,2.07592843 C5.74491297,-0.581347998 11.3557689,-0.662749341 14.3572937,2.05650863" id="Fill-11" fill="#EFEFEF" mask="url(#mask-6)"></path>
            </g>
            <mask id="mask-8" fill="white">
                <use xlink:href="#path-7"></use>
            </mask>
            <g id="Clip-15"></g>
            <polygon id="Fill-14" fill="#EFEFEF" mask="url(#mask-8)" points="69.0697674 35.5813953 72.2093023 35.5813953 72.2093023 20.9302326 69.0697674 20.9302326"></polygon>
            <polygon id="Fill-16" fill="#EFEFEF" mask="url(#mask-8)" points="113.023256 35.5813953 116.162791 35.5813953 116.162791 20.9302326 113.023256 20.9302326"></polygon>
            <path d="M111.971284,21.1408842 L111.976744,23.0993177 C110.22916,22.6771414 108.844937,22.7418421 108.010775,23.4118954 C107.588938,23.7505924 107.307479,24.2444686 107.191232,24.9083762 C107.125887,25.2810453 107.134165,25.6228152 107.134165,25.9971914 L107.134165,36.627907 L103.604651,36.627907 L103.604651,26.477752 C103.604651,24.7986069 104.149957,23.0373484 105.582792,21.9847246 C107.074984,20.8882272 109.295659,20.7231465 111.971284,21.1408842" id="Fill-17" fill="#EFEFEF" mask="url(#mask-8)"></path>
            <path d="M66.9767442,36.2546941 L66.5525211,34.6280962 C64.8935866,35.0278355 63.5794482,34.9662501 62.7875206,34.3319691 C62.387042,34.0112724 62.1200005,33.5438054 62.0094718,32.9148585 C61.9476024,32.5621568 61.9554615,32.2385506 61.9554615,31.8840709 L61.9554615,23.4544693 L66.7804344,23.4544693 L66.7804344,21.5538892 L61.9554615,21.5538892 L61.9554615,19.0371318 C61.9989373,17.1514227 60.7165697,16.574201 58.6046512,16.7854664 L58.6046512,31.4290503 C58.6046512,33.0189556 59.1221799,34.6866104 60.4823022,35.6832916 C61.8992774,36.7216763 64.2287419,36.8912381 66.9767442,36.2546941" id="Fill-18" fill="#EFEFEF" mask="url(#mask-8)"></path>
            <path d="M86.8604651,35.8618698 C83.703779,37.1358775 79.1594818,36.7759708 76.9796394,35.1150265 C75.2545199,33.8010473 74.3023256,31.6583162 74.3023256,28.8183783 C74.3023256,26.544757 75.2100474,24.449369 76.8317425,23.015148 C79.269284,20.8594752 83.411605,20.4014419 86.4200494,21.5204783 L86.4200494,23.519214 C84.4434361,22.527136 81.5246262,22.4861817 79.707976,23.9272831 C78.3519093,25.0032356 77.8496113,26.854208 77.8663316,28.7133713 C77.8825347,30.4459038 78.3357061,32.1853166 79.3430601,33.3310553 C80.3361071,34.4610675 81.9838307,34.8555397 83.600527,34.7588875 C84.6047782,34.6990942 85.4649248,34.5205332 86.2874938,34.0310469 L86.8604651,35.8618698 Z" id="Fill-19" fill="#EFEFEF" mask="url(#mask-8)"></path>
            <path d="M97.1140609,28.9587712 L94.845056,28.9517809 C93.5493416,28.9470665 92.080636,29.1523851 91.1438009,29.8848993 C90.4741909,30.4081934 90.1644919,31.1997184 90.1909736,32.2396415 C90.2198628,33.3832806 90.7283469,34.1548102 91.5778266,34.5719499 C91.9673147,34.7631254 92.4009964,34.852048 92.8489508,34.8567623 C94.5021689,34.8743193 96.2834968,33.8573177 96.8745214,32.3786339 C97.0126048,32.0328599 97.1042592,31.6813961 97.1059788,31.2184133 L97.1140609,28.9587712 Z M88.3444731,23.743387 L88.3427535,21.7931045 C92.9204859,20.4997438 95.2964496,18.7183655 96.8836352,16.744186 L99.6783201,16.744186 C98.5292871,18.5397075 96.3980218,20.0143272 93.7316186,21.1487001 C95.3363442,21.1483749 96.685194,21.3836053 97.7437764,21.8865789 C99.1514364,22.5548802 100.046485,23.6957557 100.349994,25.3810586 C100.47604,26.079922 100.464863,26.7358685 100.464863,27.4379832 L100.464863,36.3647077 C100.281898,36.3647077 100.097213,36.3637323 99.9281772,36.3647077 C98.3016128,36.3725108 97.3410474,35.846128 97.2107021,34.5992607 L97.2105302,34.5995858 C95.8149073,36.0655896 94.0113966,36.6303376 92.3002282,36.6278991 C90.5450381,36.624973 89.1246531,36.2036066 88.2137839,35.4150077 C87.302055,34.6255961 86.8902121,33.5461699 86.8620108,32.4301668 C86.8320898,31.251739 87.2355067,30.0328327 88.1661512,29.0966256 C88.5023319,28.7588172 88.9231167,28.4897735 89.3832801,28.2532426 C90.7132145,27.5683597 92.3432181,27.1816195 94.2879074,27.1882846 L97.1161244,27.1985262 L97.1175001,26.282477 C97.1187038,25.6005202 96.9625646,24.9213271 96.5491741,24.3539781 C96.19339,23.8666107 95.7045093,23.4777571 95.1686837,23.2446401 C93.581498,22.5532546 91.1854151,22.8353035 88.3444731,23.743387 Z" id="Fill-20" fill="#EFEFEF" mask="url(#mask-8)"></path>
            <path d="M22.184358,15.5997374 L22.1023947,15.5997374 L21.9873116,15.5997374 L21.8688829,15.5997374 L21.7472762,15.5997374 L21.6223239,15.5997374 C21.6050949,15.6000637 21.5882004,15.6002269 21.5711387,15.6002269 L21.5642805,15.6003901 C21.5478879,15.6003901 21.5316625,15.6002269 21.5154371,15.5999006 L21.5075753,15.5995742 L21.4607391,15.5982687 L21.4587319,15.5982687 L21.4583973,15.5982687 L21.4553864,15.5981055 C21.440332,15.5974528 21.4252775,15.5964737 21.4105575,15.5956578 L21.4020267,15.5951682 C21.3868049,15.5941891 21.3714159,15.5930468 21.3563614,15.5917414 L21.3476632,15.5909254 L21.3045071,15.5866827 L21.3023325,15.5865195 L21.3016634,15.5863563 L21.2981507,15.5861931 L21.2553291,15.580808 L21.2474673,15.5798289 L21.2056493,15.5737911 L21.1957802,15.5721593 C21.1813948,15.5698747 21.1671767,15.567427 21.1527913,15.564816 L21.1521222,15.5646528 L21.1491113,15.5640001 L21.1111406,15.5566568 L21.0992643,15.5542091 L21.0626317,15.5460499 L21.0484136,15.542623 C21.0358682,15.5396857 21.02349,15.5365852 21.0109446,15.5333215 L21.009941,15.5329952 C20.9967265,15.5295683 20.9838465,15.5258151 20.9711339,15.5220618 L20.9600939,15.5189614 C20.9478831,15.5153713 20.9360067,15.5117813 20.9241304,15.508028 L20.9120868,15.5039484 L20.885156,15.4949733 L20.8667561,15.488446 L20.837818,15.4776758 L20.8287854,15.4744122 L20.7975055,15.461847 L20.7814474,15.4551565 L20.7501675,15.441449 L20.748662,15.4407963 L20.7418039,15.4375326 L20.717884,15.4264361 L20.7033313,15.4194192 L20.7016586,15.4186033 L20.6780732,15.4065277 L20.6755642,15.4053854 L20.658837,15.3964103 L20.6451207,15.3889038 L20.6166844,15.3729118 L20.6021317,15.3644262 L20.5872445,15.3554511 L20.5862409,15.3549615 L20.564161,15.3410909 L20.5619864,15.3397854 L20.5459283,15.3293417 L20.5328811,15.3206929 L20.5071212,15.3027427 L20.4937394,15.2931149 L20.4800231,15.2833238 L20.4790195,15.2825079 L20.4586123,15.2666791 L20.4576087,15.2661895 L20.4400451,15.2523189 L20.4335215,15.2467706 C20.4229834,15.2382851 20.4126125,15.2296363 20.4025762,15.2208244 L20.3968889,15.2159289 L20.3799945,15.200916 L20.36126,15.1836185 L20.3447001,15.1676264 L20.338511,15.1615886 C20.3289765,15.152124 20.319442,15.1426593 20.3100747,15.1328683 L20.3043875,15.1268305 C20.2879948,15.1093698 20.2719367,15.0915828 20.2563804,15.073143 L20.2535368,15.0697161 C20.2446714,15.0592723 20.2361405,15.0486654 20.2274424,15.0378953 L20.2199151,15.0282674 C20.2053624,15.0096644 20.1914789,14.9905719 20.1775953,14.971153 L20.1760898,14.9687053 C20.1520027,14.9339471 20.1290864,14.8977203 20.1078428,14.8603512 C19.9221709,14.5339834 19.8470657,14.1090526 19.9005928,13.6046512 L28.2874459,13.6046512 C28.2958095,13.6046512 28.3048422,13.6049775 28.3140422,13.6054671 C30.3960773,13.5865378 32.4782798,14.0840854 33.9255175,15.1201399 C35.4140714,16.1860571 36.1557557,17.8084313 36.1557557,19.4645846 C36.1557557,20.7457413 35.7180048,22.0117219 34.7782704,22.9759755 C34.1667238,23.6032544 33.3805452,24.1083085 32.4919961,24.4870583 C33.5162028,24.7798102 34.4557699,25.2181221 35.2297376,25.8057473 C36.8614765,27.0449657 37.6744186,28.9315347 37.6744186,30.8574309 C37.6744186,32.3471366 37.1945151,33.8193817 36.1644538,34.9406182 C33.2336803,38.1307 26.6446671,38.604586 23.0003111,35.9621493 C21.7397489,35.0479932 20.9074032,33.7940882 20.5536228,32.4073515 L20.5532883,32.4062092 C20.2041915,31.2148036 20.0954647,29.4783639 20.0954647,28.8349298 L20.0954647,17.3624497 C20.9425303,17.3027244 21.8396103,17.2575225 22.512713,17.6506325 C23.4233421,18.1822856 23.5620106,19.2604415 23.5608397,20.2010335 L23.5501343,28.9827744 C23.5676978,30.807823 23.9910634,32.2989974 24.6686825,33.4231712 C25.2144911,34.3276995 25.970059,34.9877783 26.9653277,35.3676704 C28.5768265,35.9828737 30.926497,35.8381295 32.3322513,34.83667 C33.8853722,33.7304464 34.0305643,31.8652546 34.0181862,30.7296579 C34.0058081,29.6090742 33.7386746,27.8799777 32.1664847,26.8078595 C31.395026,26.2815915 30.2920341,25.8460537 28.7855821,25.8527442 L25.7228309,25.8538865 L25.7228309,23.6580841 L29.0742936,23.6585737 C29.3717033,23.6585737 29.6905238,23.5298216 29.9145011,23.4852724 C30.4181572,23.3845879 30.8426937,23.1659215 31.2424739,22.8522821 C32.3447967,21.987897 32.6920534,20.2034812 32.611261,19.1390327 C32.4725925,17.3090886 31.3819788,15.5997374 27.3358352,15.5997374 L22.184358,15.5997374 Z" id="Fill-21" fill="#EFEFEF" mask="url(#mask-8)"></path>
        </g>
    </g>
</svg>