<?xml version="1.0" encoding="UTF-8"?>
<svg width="148px" height="148px" viewBox="0 0 148 148" version="1.1" xmlns="http://www.w3.org/2000/svg" xmlns:xlink="http://www.w3.org/1999/xlink">
    <!-- Generator: Sketch 52.5 (67469) - http://www.bohemiancoding.com/sketch -->
    <title>Artboard</title>
    <desc>Created with Sketch.</desc>
    <defs>
        <polygon id="path-1" points="0.115586387 0.0677685524 116.067487 0.0677685524 116.067487 17.6701571 0.115586387 17.6701571"></polygon>
    </defs>
    <g id="Artboard" stroke="none" stroke-width="1" fill="none" fill-rule="evenodd">
        <g id="Group-10" transform="translate(7.000000, 65.000000)">
            <path d="M47.4467042,7.54334293 C47.9428822,7.81640576 48.573589,7.95493979 49.3105524,7.95493979 C50.0583534,7.95493979 50.660788,7.81640576 51.1786414,7.54334293 C51.7054476,7.29384031 51.9525942,6.96682461 51.9525942,6.60706021 C51.9525942,6.2232644 51.7054476,5.92428534 51.1786414,5.67313351 C50.660788,5.39724346 50.0583534,5.26342147 49.3105524,5.29122251 C48.573589,5.26342147 47.9645576,5.39724346 47.4467042,5.67313351 C46.9264948,5.92428534 46.6817042,6.2232644 46.6817042,6.60706021 C46.6817042,6.96682461 46.9264948,7.29384031 47.4467042,7.54334293" id="Fill-1" fill="#EFEFEF"></path>
            <path d="M84.9527199,7.5126911 C85.4488979,7.76195812 86.0814895,7.89884293 86.8229293,7.89884293 C87.5360969,7.89884293 88.1689241,7.76195812 88.6870131,7.5126911 C89.2133482,7.23962827 89.4586099,6.93405236 89.4586099,6.5787644 C89.4586099,6.19496859 89.2133482,5.86771728 88.6870131,5.62080628 C88.1689241,5.37365969 87.5360969,5.23512565 86.8229293,5.23512565 C86.0814895,5.23512565 85.479055,5.37365969 84.9527199,5.62080628 C84.4343953,5.86771728 84.1877199,6.19496859 84.1877199,6.5787644 C84.1877199,6.93405236 84.4343953,7.23962827 84.9527199,7.5126911" id="Fill-3" fill="#EFEFEF"></path>
            <g id="Group-7" transform="translate(18.612565, 0.225401)">
                <mask id="mask-2" fill="white">
                    <use xlink:href="#path-1"></use>
                </mask>
                <g id="Clip-6"></g>
                <path d="M114.693361,14.5891649 L82.5324974,14.5891649 C75.7876806,13.7308665 75.1649843,10.8049241 74.9809791,9.75319634 L74.9809791,9.74471466 C74.979801,9.67615445 74.9524712,9.10717539 74.9430471,8.91751571 C74.950822,8.88877225 74.9626021,8.86238482 74.9680209,8.83269895 C75.5603246,5.67068325 78.0091728,3.90837958 82.4434398,3.44447906 L114.615848,3.44447906 C115.374251,3.44447906 115.983283,2.83167801 115.983283,2.07068325 C115.983283,1.3118089 115.374251,0.696180628 114.615848,0.696180628 L82.3484921,0.696180628 C82.3001937,0.696180628 82.2587277,0.703248691 82.2118429,0.705133508 C75.0445916,1.43926963 72.8478377,5.24707068 72.2765026,8.31602356 C72.2128901,8.47976702 72.1808482,8.65953141 72.189801,8.85225393 L72.256712,10.0613639 C72.256712,10.115788 72.256712,10.1051859 72.2609529,10.1541911 C72.4687539,11.3675419 72.9251152,12.4312853 73.6170785,13.3494267 L67.5274712,9.96193979 L50.2705602,0.380709424 C49.8391728,0.0282486911 49.2174188,-0.0440811518 48.7061623,0.254191099 L25.4875759,13.7925942 L25.4875759,1.63293455 C25.4875759,0.876651832 24.8719476,0.261259162 24.1114241,0.261259162 C23.9823141,0.261259162 23.859801,0.28458377 23.7412932,0.318039267 C23.5539895,0.323222513 23.3650366,0.364688482 23.1859791,0.451861257 L2.58964398,10.3905 C2.49210471,10.4380916 2.40540314,10.4974634 2.32459162,10.5629607 L0.115586387,11.6566257 L2.48762827,12.8506571 C2.68859686,12.9529084 2.90252356,12.9943743 3.11385864,12.9931963 C3.33815183,13.0056832 3.56762827,12.9698717 3.78367539,12.8662068 L22.7397487,3.7194267 L22.7397487,15.9631963 C22.7397487,16.373144 22.9199843,16.7357356 23.2017644,16.9875942 C23.625377,17.4873063 24.3557435,17.6314948 24.9414503,17.2853953 L33.1420524,12.506678 C33.1561885,12.5095052 33.1696178,12.5149241 33.1837539,12.5170445 L37.8133351,9.78830105 L37.806267,9.78830105 L49.3934136,3.03570942 L61.563911,9.78830105 L40.1867906,9.78830105 L35.483466,12.5344791 L66.5122618,12.5344791 L75.4229686,17.498144 C76.0859529,17.864034 76.9230471,17.6279607 77.2891728,16.9645052 C77.4333613,16.7055785 77.4818953,16.4207356 77.4510314,16.1472016 C78.8019738,16.7020445 80.4068953,17.0955 82.2634398,17.3263901 C82.3176283,17.3329869 82.3720524,17.3393482 82.4323665,17.3393482 L114.693361,17.3393482 C115.452,17.3393482 116.067628,16.7265471 116.067628,15.9631963 C116.067628,15.2045576 115.452,14.5891649 114.693361,14.5891649" id="Fill-5" fill="#EFEFEF" mask="url(#mask-2)"></path>
            </g>
            <path d="M2.04585079,0.384431937 C1.37085079,0.0397460733 0.543180628,0.315400524 0.202735602,0.989222513 C0.108730366,1.17534817 0.0644371728,1.37136911 0.0583115183,1.56597644 C0.0241492147,1.68660471 0.000117801047,1.81076702 0.000117801047,1.94270419 L0.000117801047,16.2710812 C0.000117801047,17.0313691 0.612447644,17.6474686 1.37320681,17.6474686 C2.12925393,17.6474686 2.7451178,17.0313691 2.7451178,16.2710812 L2.7451178,3.81644764 L17.4071073,11.2148246 L20.4899607,9.69731152 L2.04585079,0.384431937 Z" id="Fill-8" fill="#EFEFEF"></path>
        </g>
    </g>
</svg>