<?xml version="1.0" encoding="UTF-8"?>
<svg width="148px" height="148px" viewBox="0 0 148 148" version="1.1" xmlns="http://www.w3.org/2000/svg" xmlns:xlink="http://www.w3.org/1999/xlink">
    <!-- Generator: Sketch 52.5 (67469) - http://www.bohemiancoding.com/sketch -->
    <title>Artboard</title>
    <desc>Created with Sketch.</desc>
    <defs>
        <polygon id="path-1" points="0.0691329114 0.034556962 1.67432278 0.034556962 1.67432278 2.7633038 0.0691329114 2.7633038"></polygon>
        <polygon id="path-3" points="0.102892405 0.034556962 1.70789241 0.034556962 1.70789241 2.7633038 0.102892405 2.7633038"></polygon>
        <polygon id="path-5" points="0.175443038 0.034556962 1.86094937 0.034556962 1.86094937 2.76317089 0.175443038 2.76317089"></polygon>
        <polygon id="path-7" points="0 22.0253165 134.914367 22.0253165 134.914367 0.034556962 0 0.034556962"></polygon>
    </defs>
    <g id="Artboard" stroke="none" stroke-width="1" fill="none" fill-rule="evenodd">
        <g id="Group-79" transform="translate(7.000000, 63.000000)">
            <path d="M0,4.92506962 L134.914367,4.92506962 L0,4.92506962 Z" id="Fill-1" fill="#EFEFEF"></path>
            <polygon id="Fill-2" fill="#EFEFEF" points="4.17337975 0.270132911 3.61173418 2.35684177 3.13002532 0.270132911 2.56818987 0.270132911 2.56818987 2.83836076 2.88907595 2.83836076 2.88907595 0.591018987 3.45129114 2.83836076 3.77217722 2.83836076 4.33401266 0.591018987 4.33401266 2.83836076 4.65489873 2.83836076 4.65489873 0.270132911"></polygon>
            <path d="M6.90225949,0.270132911 L6.17998101,2.83836076 L6.50086709,2.83836076 L6.6615,2.19639873 L7.54441139,2.19639873 L7.70485443,2.83836076 L8.02574051,2.83836076 L7.30346203,0.270132911 L6.90225949,0.270132911 Z M7.06270253,0.591018987 L7.14282911,0.591018987 L7.46390506,1.87532278 L6.74162658,1.87532278 L7.06270253,0.591018987 Z" id="Fill-3" fill="#EFEFEF"></path>
            <polygon id="Fill-4" fill="#EFEFEF" points="10.4336203 0.270132911 9.87197468 1.47393038 9.39026582 0.270132911 9.069 0.270132911 9.7111519 1.87532278 9.7111519 2.83836076 10.0324177 2.83836076 10.0324177 1.87532278 10.7546962 0.270132911"></polygon>
            <g id="Group-78" transform="translate(0.000000, 0.155316)">
                <path d="M12.5202532,0.355405063 L12.9214557,0.355405063 C13.2427215,0.355405063 13.3228481,0.516037975 13.3228481,0.756987342 C13.3228481,1.23831646 13.0822785,1.23831646 12.9214557,1.23831646 L12.5202532,1.23831646 L12.5202532,0.355405063 Z M12.1993671,2.68306329 L12.9214557,2.68306329 C13.483481,2.68306329 13.8043671,2.52243038 13.8043671,1.96078481 C13.8043671,1.63951899 13.6439241,1.39894937 13.3228481,1.31863291 C13.5636076,1.23831646 13.7242405,0.997556962 13.7242405,0.756987342 C13.7242405,0.275278481 13.3228481,0.114835443 13.0017722,0.114835443 L12.1993671,0.114835443 L12.1993671,2.68306329 Z M12.5202532,1.47907595 L12.9214557,1.47907595 C13.2427215,1.47907595 13.4031646,1.63951899 13.4031646,1.96078481 C13.4031646,2.2015443 13.3228481,2.4423038 13.0017722,2.4423038 L12.5202532,2.4423038 L12.5202532,1.47907595 Z" id="Fill-5" fill="#EFEFEF"></path>
                <polygon id="Fill-7" fill="#EFEFEF" points="15.4096709 0.11485443 16.6937848 0.11485443 16.6937848 0.355424051 15.730557 0.355424051 15.730557 1.23833544 16.6937848 1.23833544 16.6937848 1.47909494 15.730557 1.47909494 15.730557 2.44232278 16.7739114 2.44232278 16.7739114 2.68308228 15.4096709 2.68308228"></polygon>
                <g id="Group-11" transform="translate(20.316456, 0.000000)">
                    <mask id="mask-2" fill="white">
                        <use xlink:href="#path-1"></use>
                    </mask>
                    <g id="Clip-10"></g>
                    <path d="M1.27312025,0.756911392 C1.27312025,0.516151899 1.1928038,0.355329114 0.871917722,0.355329114 C0.550651899,0.355329114 0.390208861,0.435835443 0.390208861,0.756911392 C0.390208861,1.47918987 1.67432278,1.07779747 1.67432278,1.96070886 C1.67432278,2.60286076 1.1928038,2.7633038 0.871917722,2.7633038 C0.229765823,2.7633038 0.0691329114,2.44222785 0.0691329114,1.88039241 L0.390208861,1.88039241 C0.390208861,2.20146835 0.390208861,2.52235443 0.871917722,2.52235443 C1.11248734,2.52235443 1.27312025,2.36191139 1.27312025,2.04102532 C1.27312025,1.31855696 0.0691329114,1.71994937 0.0691329114,0.756911392 C0.0691329114,0.516151899 0.149449367,0.034443038 0.871917722,0.034443038 C1.35324684,0.034443038 1.59400633,0.275392405 1.59400633,0.756911392 L1.27312025,0.756911392 Z" id="Fill-9" fill="#EFEFEF" mask="url(#mask-2)"></path>
                </g>
                <polygon id="Fill-12" fill="#EFEFEF" points="25.1208418 2.68312025 24.7999557 2.68312025 24.7999557 1.47913291 23.8367278 1.47913291 23.8367278 2.68312025 23.5158418 2.68312025 23.5158418 0.114892405 23.8367278 0.114892405 23.8367278 1.15824684 24.7999557 1.15824684 24.7999557 0.114892405 25.1208418 0.114892405"></polygon>
                <polygon id="Fill-14" fill="#EFEFEF" points="26.8062722 0.11485443 28.0903861 0.11485443 28.0903861 0.355424051 27.1273481 0.355424051 27.1273481 1.23833544 28.0903861 1.23833544 28.0903861 1.47909494 27.1273481 1.47909494 27.1273481 2.44232278 28.1707025 2.44232278 28.1707025 2.68308228 26.8062722 2.68308228"></polygon>
                <path d="M29.7758165,0.11485443 L30.0968924,0.11485443 L30.0968924,0.435740506 C30.0968924,0.6765 30.0968924,0.917449367 29.7758165,0.997575949 L29.7758165,0.836943038 C29.9364494,0.836943038 29.9364494,0.757006329 29.9364494,0.596183544 L29.9364494,0.516056962 L29.7758165,0.516056962 L29.7758165,0.11485443 Z" id="Fill-16" fill="#EFEFEF"></path>
                <g id="Group-20" transform="translate(31.518987, 0.000000)">
                    <mask id="mask-4" fill="white">
                        <use xlink:href="#path-3"></use>
                    </mask>
                    <g id="Clip-19"></g>
                    <path d="M1.30668987,0.756911392 C1.30668987,0.516151899 1.22637342,0.355329114 0.905487342,0.355329114 C0.584221519,0.355329114 0.423778481,0.435835443 0.423778481,0.756911392 C0.423778481,1.47918987 1.70789241,1.07779747 1.70789241,1.96070886 C1.70789241,2.60286076 1.22637342,2.7633038 0.905487342,2.7633038 C0.263335443,2.7633038 0.102892405,2.44222785 0.102892405,1.88039241 L0.423778481,1.88039241 C0.423778481,2.20146835 0.423778481,2.52235443 0.905487342,2.52235443 C1.14624684,2.52235443 1.38700633,2.36191139 1.38700633,2.04102532 C1.38700633,1.31855696 0.102892405,1.71994937 0.102892405,0.756911392 C0.102892405,0.516151899 0.263335443,0.034443038 0.905487342,0.034443038 C1.38700633,0.034443038 1.62757595,0.275392405 1.62757595,0.756911392 L1.30668987,0.756911392 Z" id="Fill-18" fill="#EFEFEF" mask="url(#mask-4)"></path>
                </g>
                <path d="M37.2398354,0.355405063 L37.641038,0.355405063 C37.9623038,0.355405063 38.0426203,0.516037975 38.0426203,0.756987342 C38.0426203,1.23831646 37.7213544,1.23831646 37.641038,1.23831646 L37.2398354,1.23831646 L37.2398354,0.355405063 Z M36.9189494,2.68306329 L37.641038,2.68306329 C38.2030633,2.68306329 38.5239494,2.52243038 38.5239494,1.96078481 C38.5239494,1.63951899 38.3635063,1.39894937 38.0426203,1.31863291 C38.2831899,1.23831646 38.3635063,0.997556962 38.3635063,0.756987342 C38.3635063,0.275278481 38.0426203,0.114835443 37.7213544,0.114835443 L36.9189494,0.114835443 L36.9189494,2.68306329 Z M37.2398354,1.47907595 L37.641038,1.47907595 C37.8819873,1.47907595 38.1227468,1.63951899 38.1227468,1.96078481 C38.1227468,2.2015443 38.0426203,2.4423038 37.7213544,2.4423038 L37.2398354,2.4423038 L37.2398354,1.47907595 Z" id="Fill-21" fill="#EFEFEF"></path>
                <g id="Group-25" transform="translate(39.873418, 0.000000)">
                    <mask id="mask-6" fill="white">
                        <use xlink:href="#path-5"></use>
                    </mask>
                    <g id="Clip-24"></g>
                    <path d="M1.05835443,0.0345 C0.335886076,0.0345 0.175443038,0.756968354 0.175443038,1.39893038 C0.175443038,2.04108228 0.335886076,2.76317089 1.05835443,2.76317089 C1.78082278,2.76317089 1.86094937,2.04108228 1.86094937,1.39893038 C1.86094937,0.756968354 1.78082278,0.0345 1.05835443,0.0345 M1.05835443,0.355386076 C1.45955696,0.355386076 1.53987342,0.837094937 1.53987342,1.39893038 C1.53987342,2.04108228 1.45955696,2.52241139 1.05835443,2.52241139 C0.576835443,2.52241139 0.496708861,2.04108228 0.496708861,1.39893038 C0.496708861,0.837094937 0.576835443,0.355386076 1.05835443,0.355386076" id="Fill-23" fill="#EFEFEF" mask="url(#mask-6)"></path>
                </g>
                <path d="M43.4197405,2.68312025 L43.7408165,2.68312025 L43.7408165,1.55944937 L44.1422089,1.55944937 C44.3026519,1.55944937 44.4630949,1.55944937 44.5434114,1.9606519 L44.5434114,2.3620443 C44.5434114,2.44236076 44.5434114,2.68312025 44.6237278,2.68312025 L45.0249304,2.68312025 C44.9446139,2.68312025 44.8644873,2.6028038 44.8644873,2.28172785 L44.8644873,1.88033544 C44.8644873,1.63957595 44.7038544,1.47913291 44.4630949,1.39900633 C44.7841709,1.31868987 44.8644873,1.07774051 44.8644873,0.75685443 C44.8644873,0.355462025 44.6237278,0.114892405 44.2225253,0.114892405 L43.4197405,0.114892405 L43.4197405,2.68312025 Z M43.7408165,0.355462025 L44.0618924,0.355462025 C44.3829684,0.355462025 44.5434114,0.516094937 44.5434114,0.75685443 C44.5434114,1.31868987 44.2225253,1.31868987 43.9817658,1.31868987 L43.7408165,1.31868987 L43.7408165,0.355462025 Z" id="Fill-26" fill="#EFEFEF"></path>
                <polygon id="Fill-28" fill="#EFEFEF" points="46.5499367 0.11485443 46.9511392 0.11485443 47.8340506 2.28168987 47.8340506 0.11485443 48.1549367 0.11485443 48.1549367 2.68308228 47.6734177 2.68308228 46.8708228 0.596183544 46.8708228 2.68308228 46.5499367 2.68308228"></polygon>
                <polygon id="Fill-30" fill="#EFEFEF" points="51.6061519 0.11485443 52.0073544 0.11485443 52.3284304 2.28168987 52.4087468 2.28168987 52.7298228 0.11485443 53.1310253 0.11485443 53.5324177 2.28168987 53.9336203 0.11485443 54.2545063 0.11485443 53.6928608 2.68308228 53.2914684 2.68308228 52.9703924 0.596183544 52.5691899 2.68308228 52.1679873 2.68308228"></polygon>
                <mask id="mask-8" fill="white">
                    <use xlink:href="#path-7"></use>
                </mask>
                <g id="Clip-33"></g>
                <polygon id="Fill-32" fill="#EFEFEF" mask="url(#mask-8)" points="55.6993671 2.68310127 56.0202532 2.68310127 56.0202532 0.114873418 55.6993671 0.114873418"></polygon>
                <polygon id="Fill-34" fill="#EFEFEF" mask="url(#mask-8)" points="58.5082405 2.68312025 58.1873544 2.68312025 58.1873544 0.355462025 57.5452025 0.355462025 57.5452025 0.114892405 59.1503924 0.114892405 59.1503924 0.355462025 58.5082405 0.355462025"></polygon>
                <polygon id="Fill-35" fill="#EFEFEF" mask="url(#mask-8)" points="62.2001962 2.68312025 61.8793101 2.68312025 61.8793101 1.47913291 60.9963987 1.47913291 60.9963987 2.68312025 60.6753228 2.68312025 60.6753228 0.114892405 60.9963987 0.114892405 60.9963987 1.15824684 61.8793101 1.15824684 61.8793101 0.114892405 62.2001962 0.114892405"></polygon>
                <polygon id="Fill-36" fill="#EFEFEF" mask="url(#mask-8)" points="66.0525949 2.68310127 66.3736709 2.68310127 66.3736709 0.114873418 66.0525949 0.114873418"></polygon>
                <polygon id="Fill-37" fill="#EFEFEF" mask="url(#mask-8)" points="68.8617342 2.68312025 68.5406582 2.68312025 68.5406582 0.355462025 67.8985063 0.355462025 67.8985063 0.114892405 69.5036962 0.114892405 69.5036962 0.355462025 68.8617342 0.355462025"></polygon>
                <polygon id="Fill-38" fill="#EFEFEF" mask="url(#mask-8)" points="69.985443 2.68310127 70.3063291 2.68310127 70.3063291 2.36202532 69.985443 2.36202532"></polygon>
                <polygon id="Fill-39" fill="#EFEFEF" mask="url(#mask-8)" points="73.9179494 0.11485443 74.4799747 0.11485443 74.9613038 2.20156329 75.5231392 0.11485443 76.0849747 0.11485443 76.0849747 2.68308228 75.7640886 2.68308228 75.7640886 0.435740506 75.1219367 2.68308228 74.8008608 2.68308228 74.2390253 0.435740506 74.2390253 2.68308228 73.9179494 2.68308228"></polygon>
                <path d="M77.5295696,2.68312025 L77.8506456,2.68312025 L78.0110886,2.04096835 L78.894,2.04096835 L79.054443,2.68312025 L79.3757089,2.68312025 L78.6532405,0.114892405 L78.252038,0.114892405 L77.5295696,2.68312025 Z M78.4927975,0.435778481 L78.8136835,1.71989241 L78.0915949,1.71989241 L78.4927975,0.435778481 Z" id="Fill-40" fill="#EFEFEF" mask="url(#mask-8)"></path>
                <polygon id="Fill-41" fill="#EFEFEF" mask="url(#mask-8)" points="80.4189494 0.11485443 80.7398354 0.11485443 81.3018608 1.3186519 81.7831899 0.11485443 82.1042658 0.11485443 81.4623038 1.71985443 81.4623038 2.68308228 81.1412278 2.68308228 81.1412278 1.71985443"></polygon>
                <path d="M83.8699367,0.355405063 L84.2713291,0.355405063 C84.5924051,0.355405063 84.7528481,0.516037975 84.7528481,0.756987342 C84.7528481,1.23831646 84.431962,1.23831646 84.2713291,1.23831646 L83.8699367,1.23831646 L83.8699367,0.355405063 Z M83.5490506,2.68306329 L84.2713291,2.68306329 C84.8331646,2.68306329 85.1540506,2.52243038 85.1540506,1.96078481 C85.1540506,1.63951899 84.9936076,1.39894937 84.6727215,1.31863291 C84.913481,1.23831646 85.0739241,0.997556962 85.0739241,0.756987342 C85.0739241,0.275278481 84.7528481,0.114835443 84.3514557,0.114835443 L83.5490506,0.114835443 L83.5490506,2.68306329 Z M83.8699367,1.47907595 L84.2713291,1.47907595 C84.5924051,1.47907595 84.8331646,1.63951899 84.8331646,1.96078481 C84.8331646,2.2015443 84.6727215,2.4423038 84.3514557,2.4423038 L83.8699367,2.4423038 L83.8699367,1.47907595 Z" id="Fill-42" fill="#EFEFEF" mask="url(#mask-8)"></path>
                <polygon id="Fill-43" fill="#EFEFEF" mask="url(#mask-8)" points="86.7592975 0.11485443 88.1237278 0.11485443 88.1237278 0.355424051 87.0801835 0.355424051 87.0801835 1.23833544 88.0434114 1.23833544 88.0434114 1.47909494 87.0801835 1.47909494 87.0801835 2.44232278 88.1237278 2.44232278 88.1237278 2.68308228 86.7592975 2.68308228"></polygon>
                <polygon id="Fill-44" fill="#EFEFEF" mask="url(#mask-8)" points="91.8155696 2.68310127 92.1368354 2.68310127 92.1368354 0.114873418 91.8155696 0.114873418"></polygon>
                <polygon id="Fill-45" fill="#EFEFEF" mask="url(#mask-8)" points="94.6246519 2.68312025 94.3037658 2.68312025 94.3037658 0.355462025 93.6616139 0.355462025 93.6616139 0.114892405 95.2668038 0.114892405 95.2668038 0.355462025 94.6246519 0.355462025"></polygon>
                <path d="M96.8717848,0.11485443 L97.1928608,0.11485443 L97.1928608,0.435740506 C97.1928608,0.6765 97.1928608,0.917449367 96.8717848,0.997575949 L96.8717848,0.836943038 C96.9521013,0.836943038 97.0324177,0.757006329 97.0324177,0.596183544 L97.0324177,0.516056962 L96.8717848,0.516056962 L96.8717848,0.11485443 Z" id="Fill-46" fill="#EFEFEF" mask="url(#mask-8)"></path>
                <path d="M99.8415,0.756911392 C99.8415,0.516151899 99.7611835,0.355329114 99.4401076,0.355329114 C99.199538,0.355329114 99.0387152,0.435835443 99.0387152,0.756911392 C99.0387152,1.47918987 100.242892,1.07779747 100.242892,1.96070886 C100.242892,2.60286076 99.8415,2.7633038 99.4401076,2.7633038 C98.8782722,2.7633038 98.6375127,2.44222785 98.6375127,1.88039241 L98.9585886,1.88039241 C98.9585886,2.20146835 99.0387152,2.52235443 99.5204241,2.52235443 C99.7611835,2.52235443 99.9216266,2.36191139 99.9216266,2.04102532 C99.9216266,1.31855696 98.7178291,1.71994937 98.7178291,0.756911392 C98.7178291,0.516151899 98.7979557,0.034443038 99.4401076,0.034443038 C100.001943,0.034443038 100.162386,0.275392405 100.162386,0.756911392 L99.8415,0.756911392 Z" id="Fill-47" fill="#EFEFEF" mask="url(#mask-8)"></path>
                <polygon id="Fill-48" fill="#EFEFEF" mask="url(#mask-8)" points="104.014899 0.11485443 104.576544 0.11485443 105.058253 2.20156329 105.619899 0.11485443 106.101608 0.11485443 106.101608 2.68308228 105.780532 2.68308228 105.780532 0.435740506 105.218696 2.68308228 104.89781 2.68308228 104.335785 0.435740506 104.335785 2.68308228 104.014899 2.68308228"></polygon>
                <path d="M107.6265,2.68312025 L107.947576,2.68312025 L108.108019,2.04096835 L108.99093,2.04096835 L109.151373,2.68312025 L109.472259,2.68312025 L108.750171,0.114892405 L108.348968,0.114892405 L107.6265,2.68312025 Z M108.509411,0.435778481 L108.589728,0.435778481 L108.910614,1.71989241 L108.188146,1.71989241 L108.509411,0.435778481 Z" id="Fill-49" fill="#EFEFEF" mask="url(#mask-8)"></path>
                <polygon id="Fill-50" fill="#EFEFEF" mask="url(#mask-8)" points="110.515709 0.11485443 110.836785 0.11485443 111.318494 1.3186519 111.880139 0.11485443 112.201215 0.11485443 111.559253 1.71985443 111.559253 2.68308228 111.157671 2.68308228 111.157671 1.71985443"></polygon>
                <path d="M113.966848,0.355405063 L114.368051,0.355405063 C114.689316,0.355405063 114.849759,0.516037975 114.849759,0.756987342 C114.849759,1.23831646 114.528873,1.23831646 114.368051,1.23831646 L113.966848,1.23831646 L113.966848,0.355405063 Z M113.645962,2.68306329 L114.368051,2.68306329 C114.930076,2.68306329 115.250962,2.52243038 115.250962,1.96078481 C115.250962,1.63951899 115.090519,1.39894937 114.769633,1.31863291 C115.010203,1.23831646 115.170835,0.997556962 115.170835,0.756987342 C115.170835,0.275278481 114.849759,0.114835443 114.448367,0.114835443 L113.645962,0.114835443 L113.645962,2.68306329 Z M113.966848,1.47907595 L114.368051,1.47907595 C114.689316,1.47907595 114.930076,1.63951899 114.930076,1.96078481 C114.930076,2.2015443 114.769633,2.4423038 114.448367,2.4423038 L113.966848,2.4423038 L113.966848,1.47907595 Z" id="Fill-51" fill="#EFEFEF" mask="url(#mask-8)"></path>
                <polygon id="Fill-52" fill="#EFEFEF" mask="url(#mask-8)" points="116.856247 0.11485443 118.220487 0.11485443 118.220487 0.355424051 117.177133 0.355424051 117.177133 1.23833544 118.140361 1.23833544 118.140361 1.47909494 117.177133 1.47909494 117.177133 2.44232278 118.220487 2.44232278 118.220487 2.68308228 116.856247 2.68308228"></polygon>
                <polygon id="Fill-53" fill="#EFEFEF" mask="url(#mask-8)" points="119.82581 0.11485443 120.146696 0.11485443 120.146696 2.44232278 121.190051 2.44232278 121.190051 2.68308228 119.82581 2.68308228"></polygon>
                <polygon id="Fill-54" fill="#EFEFEF" mask="url(#mask-8)" points="122.715038 0.11485443 123.036114 0.11485443 123.036114 2.44232278 124.079468 2.44232278 124.079468 2.68308228 122.715038 2.68308228"></polygon>
                <polygon id="Fill-55" fill="#EFEFEF" mask="url(#mask-8)" points="125.604494 2.68310127 125.92538 2.68310127 125.92538 0.114873418 125.604494 0.114873418"></polygon>
                <polygon id="Fill-56" fill="#EFEFEF" mask="url(#mask-8)" points="127.610753 0.11485443 128.012146 0.11485443 128.894867 2.28168987 128.894867 0.11485443 129.215943 0.11485443 129.215943 2.68308228 128.734424 2.68308228 127.932019 0.596183544 127.932019 2.68308228 127.610753 2.68308228"></polygon>
                <polygon id="Fill-57" fill="#EFEFEF" mask="url(#mask-8)" points="130.901468 0.11485443 132.265709 0.11485443 132.265709 0.355424051 131.222354 0.355424051 131.222354 1.23833544 132.185582 1.23833544 132.185582 1.47909494 131.222354 1.47909494 131.222354 2.44232278 132.265709 2.44232278 132.265709 2.68308228 130.901468 2.68308228"></polygon>
                <polygon id="Fill-58" fill="#EFEFEF" mask="url(#mask-8)" points="133.068418 2.68310127 133.389304 2.68310127 133.389304 2.36202532 133.068418 2.36202532"></polygon>
                <path d="M133.163937,0.451259049 L133.163937,0.284625249 L133.247319,0.284625249 C133.330702,0.284625249 133.413887,0.284625249 133.413887,0.367843549 C133.413887,0.451259049 133.330702,0.451259049 133.247319,0.451259049 L133.163937,0.451259049 Z M133.163937,0.534674549 L133.247319,0.534674549 L133.413887,0.784723849 L133.49727,0.784723849 L133.330702,0.534674549 C133.413887,0.534674549 133.49727,0.451259049 133.49727,0.367843549 C133.49727,0.284625249 133.413887,0.201209749 133.330702,0.201209749 L133.080751,0.201209749 L133.080751,0.784723849 L133.163937,0.784723849 L133.163937,0.534674549 Z M133.247319,0.0345759494 C132.997368,0.0345759494 132.747418,0.201209749 132.747418,0.534674549 C132.747418,0.784723849 132.997368,1.03457595 133.247319,1.03457595 C133.49727,1.03457595 133.747418,0.784723849 133.747418,0.534674549 C133.747418,0.201209749 133.49727,0.0345759494 133.247319,0.0345759494 Z M133.247319,0.0345759494 C133.49727,0.0345759494 133.663838,0.284625249 133.663838,0.534674549 C133.663838,0.784723849 133.49727,0.951357649 133.247319,0.951357649 C132.997368,0.951357649 132.8308,0.784723849 132.8308,0.534674549 C132.8308,0.284625249 132.997368,0.0345759494 133.247319,0.0345759494 Z" id="Fill-59" fill="#EFEFEF" mask="url(#mask-8)"></path>
                <polygon id="Fill-60" fill="#EFEFEF" mask="url(#mask-8)" points="88.7658608 18.3333608 89.6485823 18.3333608 91.735481 21.0624114 91.735481 18.3333608 92.5378861 18.3333608 92.5378861 21.944943 91.6551646 21.944943 89.4881392 19.2162722 89.4881392 21.944943 88.7658608 21.944943"></polygon>
                <polygon id="Fill-61" fill="#EFEFEF" mask="url(#mask-8)" points="95.1863734 18.3333608 98.3166266 18.3333608 98.3166266 18.8953861 95.9086519 18.8953861 95.9086519 19.8584241 98.1559937 19.8584241 98.1559937 20.4202595 95.9086519 20.4202595 95.9086519 21.3832975 98.3166266 21.3832975 98.3166266 21.944943 95.1863734 21.944943"></polygon>
                <polygon id="Fill-62" fill="#EFEFEF" mask="url(#mask-8)" points="100.403259 18.3333608 101.205854 18.3333608 102.088576 21.142538 102.971487 18.3333608 103.774082 18.3333608 104.656994 21.142538 105.459399 18.3333608 106.261994 18.3333608 105.058196 21.944943 104.255601 21.944943 103.37288 19.2162722 102.409842 21.944943 101.607057 21.944943"></polygon>
                <polygon id="Fill-63" fill="#EFEFEF" mask="url(#mask-8)" points="111.559253 20.5807215 109.953873 18.3333797 110.917101 18.3333797 111.880139 19.9385696 112.923494 18.3333797 113.886722 18.3333797 112.281532 20.5807215 112.281532 21.944962 111.559253 21.944962"></polygon>
                <path d="M118.060082,22.0253165 C119.584956,22.0253165 120.146791,21.1424051 120.146791,20.1793671 C120.146791,19.1362025 119.584956,18.2532911 118.060082,18.2532911 C116.535209,18.2532911 115.893057,19.1362025 115.893057,20.1793671 C115.893057,21.1424051 116.535209,22.0253165 118.060082,22.0253165 M118.060082,21.4636709 C117.177171,21.4636709 116.695652,20.981962 116.695652,20.1793671 C116.695652,19.3767722 117.177171,18.8149367 118.060082,18.8149367 C118.862677,18.8149367 119.344196,19.3767722 119.344196,20.1793671 C119.344196,20.981962 118.862677,21.4636709 118.060082,21.4636709" id="Fill-64" fill="#EFEFEF" mask="url(#mask-8)"></path>
                <path d="M122.634873,21.945 L123.357152,21.945 L123.357152,20.500443 L124.641266,20.500443 C125.203101,20.500443 125.283228,20.9016456 125.283228,21.3833544 C125.283228,21.7044304 125.363734,21.8648734 125.363734,21.945 L126.246456,21.945 C126.085823,21.784557 126.085823,21.3833544 126.085823,21.2227215 C126.085823,20.6608861 125.92538,20.34 125.523987,20.179557 C125.845253,20.0990506 126.166139,19.7781646 126.166139,19.2966456 C126.166139,18.7346203 125.845253,18.3334177 124.882025,18.3334177 L122.634873,18.3334177 L122.634873,21.945 Z M123.357152,19.9386076 L123.357152,18.8952532 L124.721582,18.8952532 C125.122785,18.8952532 125.363734,19.0556962 125.363734,19.4570886 C125.363734,19.8582911 125.122785,19.9386076 124.721582,19.9386076 L123.357152,19.9386076 Z" id="Fill-65" fill="#EFEFEF" mask="url(#mask-8)"></path>
                <polygon id="Fill-66" fill="#EFEFEF" mask="url(#mask-8)" points="128.654127 18.3333608 129.456911 18.3333608 129.456911 20.0188671 131.302671 18.3333608 132.346025 18.3333608 130.660709 19.7781076 132.426342 21.944943 131.382987 21.944943 130.018557 20.2596266 129.456911 20.821462 129.456911 21.944943 128.654127 21.944943"></polygon>
                <path d="M133.160936,6.87186044 L133.160936,6.70525949 L133.327734,6.70525949 C133.410936,6.70525949 133.410936,6.70525949 133.410936,6.78846139 C133.410936,6.87186044 133.327734,6.87186044 133.244335,6.87186044 L133.160936,6.87186044 Z M133.160936,6.95525949 L133.327734,6.95525949 L133.494335,7.20525949 L133.577537,7.20525949 L133.410936,6.95525949 C133.410936,6.95525949 133.494335,6.87186044 133.494335,6.78846139 C133.494335,6.70525949 133.494335,6.62186044 133.327734,6.62186044 L133.077734,6.62186044 L133.077734,7.20525949 L133.160936,7.20525949 L133.160936,6.95525949 Z M133.327734,6.53865855 C133.494335,6.53865855 133.744532,6.70525949 133.744532,6.95525949 C133.744532,7.20525949 133.494335,7.3720576 133.327734,7.3720576 C133.077734,7.3720576 132.827734,7.20525949 132.827734,6.95525949 C132.827734,6.70525949 133.077734,6.53865855 133.327734,6.53865855 Z M133.327734,6.45525949 C132.994335,6.45525949 132.827734,6.62186044 132.827734,6.95525949 C132.827734,7.20525949 132.994335,7.45525949 133.327734,7.45525949 C133.577537,7.45525949 133.827734,7.20525949 133.827734,6.95525949 C133.827734,6.62186044 133.577537,6.45525949 133.327734,6.45525949 Z" id="Fill-67" fill="#EFEFEF" mask="url(#mask-8)"></path>
                <polygon id="Fill-68" fill="#EFEFEF" mask="url(#mask-8)" points="2.5683038 6.3748481 4.49456962 6.3748481 7.94570886 13.4375696 11.3165316 6.3748481 13.2426076 6.3748481 13.2426076 14.8021899 11.8781772 14.8021899 11.8781772 7.81959494 8.50735443 14.8021899 7.30355696 14.8021899 3.93273418 7.81959494 3.93273418 14.8021899 2.5683038 14.8021899"></polygon>
                <path d="M18.9409557,14.8020949 L20.4658291,14.8020949 L21.6696266,12.2338671 L26.1641203,12.2338671 L27.3682975,14.8020949 L28.9732975,14.8020949 L24.7195633,6.37475316 L23.1145633,6.37475316 L18.9409557,14.8020949 Z M23.9169684,7.41829747 L25.7629177,11.3509557 L22.071019,11.3509557 L23.9169684,7.41829747 Z" id="Fill-69" fill="#EFEFEF" mask="url(#mask-8)"></path>
                <polygon id="Fill-70" fill="#EFEFEF" mask="url(#mask-8)" points="37.8017658 11.3509367 37.8017658 14.8020759 36.357019 14.8020759 36.357019 11.3509367 32.1836013 6.37492405 33.8689177 6.37492405 37.1596139 10.3878987 40.2896772 6.37492405 41.8948671 6.37492405"></polygon>
                <path d="M48.7970886,7.33807595 L51.6862025,7.33807595 C52.9705063,7.33807595 54.0140506,7.49851899 54.0140506,8.70231646 C54.0140506,9.58522785 53.2915823,9.98643038 51.6862025,9.98643038 L48.7970886,9.98643038 L48.7970886,7.33807595 Z M47.4326582,14.802 L52.5691139,14.802 C54.7361392,14.802 55.8598101,13.5980127 55.8598101,12.3942152 C55.8598101,11.3508608 55.1375316,10.5484557 53.7731013,10.3880127 C54.8164557,10.0667468 55.3782911,9.34446835 55.3782911,8.46174684 C55.3782911,7.65896203 54.8965823,7.017 54.1744937,6.69592405 C53.5323418,6.3748481 52.2482278,6.3748481 51.285,6.3748481 L47.4326582,6.3748481 L47.4326582,14.802 Z M48.7970886,10.9496582 L52.0877848,10.9496582 C53.2915823,10.9496582 54.4152532,11.2705443 54.4152532,12.3942152 C54.4152532,13.2771266 53.6124684,13.838962 52.4086709,13.838962 L48.7970886,13.838962 L48.7970886,10.9496582 Z" id="Fill-71" fill="#EFEFEF" mask="url(#mask-8)"></path>
                <polygon id="Fill-72" fill="#EFEFEF" mask="url(#mask-8)" points="62.2805506 6.3748481 69.6643481 6.3748481 69.6643481 7.33807595 63.7251076 7.33807595 63.7251076 9.98643038 69.2629557 9.98643038 69.2629557 10.9496582 63.7251076 10.9496582 63.7251076 13.838962 69.7444747 13.838962 69.7444747 14.8021899 62.2805506 14.8021899"></polygon>
                <polygon id="Fill-73" fill="#EFEFEF" mask="url(#mask-8)" points="76.0849557 6.3748481 77.4493861 6.3748481 77.4493861 13.838962 83.1476772 13.838962 83.1476772 14.8021899 76.0849557 14.8021899"></polygon>
                <polygon id="Fill-74" fill="#EFEFEF" mask="url(#mask-8)" points="88.6855253 6.3748481 90.1300823 6.3748481 90.1300823 13.838962 95.8283734 13.838962 95.8283734 14.8021899 88.6855253 14.8021899"></polygon>
                <polygon id="Fill-75" fill="#EFEFEF" mask="url(#mask-8)" points="101.687468 14.8021519 103.132025 14.8021519 103.132025 6.37481013 101.687468 6.37481013"></polygon>
                <polygon id="Fill-76" fill="#EFEFEF" mask="url(#mask-8)" points="109.793487 6.3748481 111.318361 6.3748481 117.016652 13.1968101 117.016652 6.3748481 118.381272 6.3748481 118.381272 14.8021899 116.856209 14.8021899 111.157728 8.06016456 111.157728 14.8021899 109.793487 14.8021899"></polygon>
                <polygon id="Fill-77" fill="#EFEFEF" mask="url(#mask-8)" points="124.962361 6.3748481 132.426475 6.3748481 132.426475 7.33807595 126.406918 7.33807595 126.406918 9.98643038 132.025082 9.98643038 132.025082 10.9496582 126.406918 10.9496582 126.406918 13.838962 132.426475 13.838962 132.426475 14.8021899 124.962361 14.8021899"></polygon>
            </g>
        </g>
    </g>
</svg>