<?xml version="1.0" encoding="UTF-8"?>
<svg width="148px" height="148px" viewBox="0 0 148 148" version="1.1" xmlns="http://www.w3.org/2000/svg" xmlns:xlink="http://www.w3.org/1999/xlink">
    <!-- Generator: Sketch 52.5 (67469) - http://www.bohemiancoding.com/sketch -->
    <title>Artboard</title>
    <desc>Created with Sketch.</desc>
    <g id="Artboard" stroke="none" stroke-width="1" fill="none" fill-rule="evenodd">
        <g id="Group-75" transform="translate(7.000000, 13.000000)" fill="#EFEFEF">
            <path d="M78.6440726,9.33609958e-05 C88.4339066,9.33609958e-05 92.9621017,7.05108921 92.9621017,15.094139 C92.9621017,18.7813382 90.8254419,24.297666 90.0826618,27.6192635 C94.6291556,25.4523548 99.7113548,22.2528734 104.347288,22.2528734 C108.35789,22.2528734 110.557475,24.1288693 110.557475,28.0317324 C110.557475,36.0099896 101.770898,43.8525 93.1344461,47.3548444 C94.0131598,47.7275415 98.4823506,47.3089108 98.4823506,49.3359647 C98.4823506,51.6649481 92.4840934,54.932583 91.8802344,55.2345124 C86.2739066,58.1455083 82.8059191,59.1685581 77.5228071,59.1685581 C77.0918527,59.1685581 72.4340726,58.6509647 72.0025581,58.6509647 C71.938139,58.6509647 65.4906286,61.4110892 62.4289481,61.4110892 C61.9976203,61.4110892 61.4736784,61.3892427 59.5760228,61.2385581 C57.829612,61.1093465 45.0061058,60.5700934 45.0061058,55.1150104 C45.0061058,54.6834959 45.1795705,54.2383506 45.3724544,53.2744917 C39.2946535,53.5190975 23.4430768,42.4356535 23.4430768,36.0533091 C23.4430768,32.9914419 25.8368527,32.7755913 27.6697158,32.7755913 C31.5290726,32.7755913 32.2944461,34.005529 37.5982842,34.7193672 C31.6375581,28.154222 29.1358568,23.1153423 29.1358568,17.0776867 C29.1358568,9.72494813 34.1383257,5.86503112 40.693388,5.86503112 C48.3267697,5.86503112 54.4794461,12.1570021 60.0867075,20.7014004 C63.3377241,9.03295643 67.431417,9.33609958e-05 78.6440726,9.33609958e-05 M77.6092593,8.62478216 C65.1459398,8.62534232 68.3584917,30.360529 61.5664793,30.360529 C56.1972884,30.360529 51.9491763,14.1454046 41.9011058,14.1454046 C38.1705871,14.1454046 35.3458568,17.4662552 35.3458568,21.0453423 C35.3458568,27.5357988 46.903388,37.2391805 46.903388,39.3308402 C46.903388,40.5381846 45.8441141,40.8403008 44.5822469,40.8836203 L31.1339689,38.1246162 C29.6861266,37.9298651 28.9633257,39.1151763 28.9633257,39.9345124 C28.9633257,49.3361515 52.5963548,50.716027 52.5963548,53.3895124 C52.5963548,53.8208402 50.5263548,55.891027 50.5263548,56.3223548 C50.5263548,58.75889 59.9703797,59.5136203 61.221417,59.5136203 C67.0434087,59.5136203 67.0434087,56.0633714 70.536417,56.0633714 C70.9677448,56.0633714 77.7816037,57.2709025 78.2129315,57.2709025 C78.4500685,57.2709025 92.6168527,55.891027 92.6168527,52.2684336 C92.6168527,51.0396162 84.6817282,51.0610892 84.6817282,48.9048237 C84.6817282,45.4332884 105.037226,43.1044917 105.037226,32.2579979 C105.037226,30.0800726 103.851355,28.8079357 101.414446,28.8079357 C96.9295705,28.8083091 87.3555871,35.7082469 83.6467282,35.7082469 C82.8490519,35.7082469 81.4040104,35.3848444 81.4040104,33.7245124 C81.4040104,31.0506535 86.4068527,22.4254046 86.4068527,17.164139 C86.4068527,11.989139 82.8059191,8.62534232 77.6092593,8.62478216" id="Fill-1"></path>
            <path d="M78.6438859,9.33609958e-05 C88.4337199,9.33609958e-05 92.9619149,7.05108921 92.9619149,15.094139 C92.9619149,18.7813382 90.8254419,24.297666 90.0826618,27.6192635 C94.6287822,25.4523548 99.711168,22.2528734 104.347102,22.2528734 C108.35789,22.2528734 110.557288,24.1288693 110.557288,28.0317324 C110.557288,36.0099896 101.770898,43.8525 93.1344461,47.3548444 C94.0131598,47.7275415 98.4821639,47.3089108 98.4821639,49.3359647 C98.4821639,51.6649481 92.4837199,54.932583 91.8802344,55.2345124 C86.2739066,58.1455083 82.8059191,59.1685581 77.5228071,59.1685581 C77.091666,59.1685581 72.4340726,58.6509647 72.0025581,58.6509647 C71.938139,58.6509647 65.4906286,61.4110892 62.4289481,61.4110892 C61.9974336,61.4110892 61.473305,61.3892427 59.5758361,61.2385581 C57.8294253,61.1093465 45.0059191,60.5700934 45.0059191,55.1150104 C45.0059191,54.6834959 45.1795705,54.2383506 45.3722676,53.2744917 C39.2946535,53.5190975 23.4430768,42.4356535 23.4430768,36.0533091 C23.4430768,32.9914419 25.8368527,32.7755913 27.669529,32.7755913 C31.5290726,32.7755913 32.2944461,34.005529 37.5982842,34.7193672 C31.6373714,28.154222 29.1354834,23.1153423 29.1354834,17.0776867 C29.1354834,9.72494813 34.1383257,5.86503112 40.6932012,5.86503112 C48.3267697,5.86503112 54.4794461,12.1570021 60.0867075,20.7014004 C63.3375373,9.03295643 67.431417,9.33609958e-05 78.6438859,9.33609958e-05 M77.6092593,8.62478216 C65.1459398,8.62534232 68.3584917,30.360529 61.5664793,30.360529 C56.1972884,30.360529 51.9491763,14.1454046 41.9009191,14.1454046 C38.1705871,14.1454046 35.3458568,17.4662552 35.3458568,21.0453423 C35.3458568,27.5357988 46.903388,37.2391805 46.903388,39.3308402 C46.903388,40.5381846 45.8441141,40.8403008 44.5818734,40.8836203 L31.1339689,38.1246162 C29.6861266,37.9298651 28.9633257,39.1151763 28.9633257,39.9345124 C28.9633257,49.3361515 52.5963548,50.716027 52.5963548,53.3895124 C52.5963548,53.8208402 50.526168,55.891027 50.526168,56.3223548 C50.526168,58.75889 59.9703797,59.5136203 61.221417,59.5136203 C67.0434087,59.5136203 67.0434087,56.0633714 70.536417,56.0633714 C70.9677448,56.0633714 77.7816037,57.2709025 78.2129315,57.2709025 C78.4500685,57.2709025 92.616666,55.891027 92.616666,52.2684336 C92.616666,51.0396162 84.6815415,51.0610892 84.6815415,48.9048237 C84.6815415,45.4332884 105.037039,43.1044917 105.037039,32.2579979 C105.037039,30.0800726 103.851168,28.8079357 101.414446,28.8079357 C96.9293838,28.8083091 87.3555871,35.7082469 83.6465415,35.7082469 C82.8488651,35.7082469 81.4040104,35.3848444 81.4040104,33.7245124 C81.4040104,31.0506535 86.4068527,22.4254046 86.4068527,17.164139 C86.4068527,11.989139 82.8059191,8.62534232 77.6092593,8.62478216" id="Fill-3"></path>
            <path d="M56.4036376,67.6464647 L61.7138589,67.6468382 L61.7138589,76.7032282 L66.3710788,76.7032282 L66.3710788,79.8440788 L61.7259959,79.8440788 L61.7259959,94.7689544 C61.7390664,95.9764855 63.3127593,98.6716307 64.9516183,98.684888 L67.4010373,98.684888 L67.4010373,100.877191 C66.4560373,100.608311 65.7494813,100.914349 64.930332,100.914349 C59.7764315,100.914349 56.3911618,97.2704689 56.4036722,92.2248672 L56.4036376,67.6464647 Z" id="Fill-5"></path>
            <path d="M12.0579647,76.418888 C15.4001017,76.418888 23.9605581,78.4676017 23.9480477,84.807 L23.9480614,97.4391162 L18.7978817,97.4391162 L18.7978817,85.6265228 C18.7853714,81.5078091 15.7453506,78.4890747 12.0579647,78.4890747 C8.26302697,78.4890747 5.50271577,81.6588672 5.49001867,85.152249 L5.49001867,97.3961701 L0.167695021,97.3961701 L0.167695021,85.9713983 C0.155184647,79.1790124 7.33520539,76.418888 12.0579647,76.418888" id="Fill-7"></path>
            <path d="M108.056147,76.5916245 C109.242019,76.5916245 109.112434,76.5916245 110.876396,76.616832 L110.876583,78.9820394 C110.298492,79.0066867 109.630027,79.0066867 109.198699,79.0066867 C105.942828,79.0066867 104.347102,80.9256286 104.334218,83.9447365 L104.334218,97.4391349 L99.0120419,97.4391349 L99.0120809,85.6265415 C98.9993838,80.6024129 102.083098,76.5916245 108.056147,76.5916245" id="Fill-9"></path>
            <path d="M39.91711,76.7640996 C44.7470477,76.7640996 51.5610934,80.0632905 51.5482095,86.5320871 L51.5482095,97.3961328 L46.2260726,97.3961328 L46.2260726,85.971361 C46.2135622,82.5644315 43.690388,78.6615685 39.8306577,78.6615685 C34.2676494,78.6615685 33.1030643,83.5779585 33.1030643,87.0280207 C33.1030643,91.4053444 35.2380436,95.0495975 40.1759066,95.0495975 C41.5128361,95.0494108 43.3369232,94.4726266 44.6376286,94.0299087 L44.6376286,95.864639 C42.7732095,97.3386224 40.7147863,97.8093485 38.9681888,97.8093485 C32.6504502,97.8093485 27.9280643,93.3890788 27.9280643,87.2870041 C27.9280643,80.0849502 34.1597241,76.7640996 39.91711,76.7640996" id="Fill-11"></path>
            <path d="M70.5490238,76.7895311 L75.6992054,76.7895311 L75.6992054,88.2141162 C75.7117158,91.7071245 78.4499938,95.5668548 82.3528568,95.5668548 C85.5655954,95.5668548 89.1667158,92.6775187 89.1794129,88.947 L89.1794129,76.7895311 L94.329593,76.7895311 L94.3295788,88.3862739 C94.3419025,95.6099876 86.2988527,97.8093859 82.266778,97.8093859 C78.2558029,97.8093859 70.5363423,94.9846556 70.5490394,88.947 L70.5490238,76.7895311 Z" id="Fill-13"></path>
            <path d="M123.408579,76.7640996 C127.74277,76.7640996 132.373102,78.0483734 134.866774,84.5970871 L134.866774,97.4392656 L129.545197,97.4392656 L129.545197,84.2464232 C129.5325,80.3650332 125.349554,78.6615685 123.149969,78.6615685 C117.414429,78.6615685 116.767438,83.6210913 116.767438,86.9417552 C116.767438,90.9954896 118.061048,95.0494108 123.581297,95.0494108 C125.133517,95.0495975 126.66221,94.4707593 128.303496,94.0315892 L128.303869,95.8625851 C126.634948,97.3356349 123.991151,97.8093485 122.460218,97.8093485 C116.357583,97.8093485 111.247376,93.0006971 111.247376,87.1142863 C111.247376,80.3217137 117.910363,76.7640996 123.408579,76.7640996" id="Fill-15"></path>
            <path d="M0,108.185228 L1.85190871,108.185228 L1.85190871,113.698195 C2.46286307,113.510166 3.10910788,112.989772 3.54043568,112.989772 L5.56711618,112.989772 C7.93960581,112.989772 8.6076971,117.474834 8.6076971,117.81971 C8.6076971,121.162033 6.51603734,122.822365 3.51896266,122.822365 C2.6346473,122.822365 1.16141079,122.935705 0,122.085747 L0,108.185228 Z M4.12263485,114.714523 C3.69112033,114.714523 2.60439834,115.249668 1.89690871,115.797137 L1.89690871,120.876909 C2.48022822,120.924896 3.15224066,120.924896 3.58356846,120.924896 C5.22242739,120.924896 6.53751037,119.997635 6.53751037,117.81971 C6.53751037,117.022033 5.97697095,114.714523 4.12263485,114.714523 Z" id="Fill-17"></path>
            <path d="M98.5012469,108.185228 L100.67133,108.185228 L100.67133,113.683817 C101.128052,112.918631 102.23382,112.989772 103.053156,112.989772 C106.158529,112.989772 107.107263,116.094772 107.107263,117.81971 C107.107263,121.162033 105.015604,122.822365 102.018529,122.822365 C100.875604,122.822365 100.190334,122.943174 98.5012469,122.091722 L98.5012469,108.185228 Z M102.622201,114.714523 C102.190687,114.714523 101.276683,115.07695 100.56882,115.624419 L100.56882,120.876909 C101.152326,120.924896 101.737886,120.924896 102.169214,120.924896 C104.51967,120.924896 105.037077,119.803631 105.037077,117.906349 C105.037077,117.00056 104.8216,114.714523 102.622201,114.714523 Z" id="Fill-19"></path>
            <path d="M67.5704315,111.270641 L67.5704315,113.117695 C67.7287718,113.171658 68.032195,113.162135 70.5962614,113.10033 L70.5962614,114.863172 L67.5905975,114.863172 L67.5911577,120.127052 C67.6040415,120.924915 68.8759917,121.097446 68.9841037,121.097446 C69.4150581,121.097446 70.239249,120.761533 71.0020083,120.414604 C71.6105353,122.322716 70.2347676,122.822384 68.7254938,122.822384 C67.1295809,122.822384 65.7063859,121.830703 65.7175892,119.997654 L65.7175892,114.902197 C65.2679627,114.887073 64.7647469,114.887073 64.1623817,114.882031 L67.5704315,111.270641 Z" id="Fill-21"></path>
            <path d="M15.4215934,112.989753 C17.4915934,112.989753 19.4755145,114.908695 19.4613237,117.237492 L19.4613237,118.150562 L13.0390207,118.150562 C12.8950581,118.312077 12.9202656,118.078488 12.9202656,118.510002 C12.9202656,120.774193 15.4215934,120.924878 16.1115311,120.924878 C17.6643112,120.924878 17.1106805,120.846454 19.2764689,119.903322 L19.2764689,121.747575 C16.818834,122.986102 17.6857842,122.822346 15.7664689,122.822346 C12.553917,122.822346 10.8500788,120.687927 10.8500788,117.819691 C10.8500788,115.167678 12.4891245,112.989753 15.4215934,112.989753 M15.3355145,114.714504 C14.4297261,114.714504 13.1799959,115.240127 12.9404315,116.931268 L17.5632946,116.931268 L17.5629212,116.17355 C17.3825477,115.066475 15.9391867,114.714504 15.3355145,114.714504" id="Fill-23"></path>
            <path d="M26.8931017,112.989753 C27.9927075,112.989753 28.5952593,113.254712 29.7398651,114.542533 C31.2080602,112.952035 31.6371473,112.989753 32.7580394,112.989753 C35.1732884,112.989753 36.0357573,115.081413 36.0230602,116.720272 L36.0231981,122.624421 L33.9780809,122.624421 L33.9780809,116.159732 C33.9655705,115.038093 32.4348237,114.714504 32.0681017,114.714504 C31.7446992,114.714504 30.1706328,114.973861 30.1465456,115.857616 L30.1465456,122.624421 L28.112583,122.624421 L28.112583,116.159732 C28.1006328,115.038093 26.9791805,114.714504 26.2896162,114.714504 C25.5561722,114.714504 25.1263382,114.684068 24.117666,115.865645 L24.117666,122.624421 L22.0879979,122.624421 L22.0879979,113.187865 L24.1087033,113.187865 C24.1333506,113.593612 24.1240145,113.900023 24.2315664,114.198031 C25.2994295,113.016641 26.1383714,112.989753 26.8931017,112.989753" id="Fill-25"></path>
            <path d="M49.8360996,112.989753 C51.5610373,112.989753 53.9760996,114.218757 53.9626556,116.547554 L53.9626556,118.150002 L47.540166,118.150002 C47.3956432,118.312077 47.4208506,118.16494 47.4208506,118.596081 C47.4208506,120.730873 49.9440249,120.924878 50.5260373,120.924878 C51.7765145,120.924878 52.3557261,120.346039 53.9548133,119.906869 L53.9548133,121.56384 C52.4614108,123.013737 51.3022407,122.822346 50.1809751,122.822346 C46.644834,122.822346 45.3508506,120.23494 45.3508506,117.819691 C45.3508506,115.167678 46.7523859,112.989753 49.8360996,112.989753 M49.8360996,114.714504 C49.1889212,114.714504 47.163361,115.267761 47.4507261,116.935002 L52.0513693,116.935002 C52.1645228,115.258425 50.6769087,114.714504 49.8360996,114.714504" id="Fill-27"></path>
            <path d="M59.4097095,112.989753 C60.5315353,112.989753 60.6829668,112.893778 62.0553734,113.72301 L62.0553734,115.567077 C61.0905809,115.047616 59.9274896,114.714504 59.4963485,114.714504 C59.1512863,114.714504 58.2886307,114.908695 58.2886307,115.490894 C58.2886307,116.741932 62.6013485,117.64716 62.6013485,120.062595 C62.6013485,122.369546 60.8330913,122.822346 59.3236307,122.822346 C58.2021784,122.822346 57.773278,122.941662 56.2509336,122.09021 L56.2509336,119.8966 C57.0745643,120.559276 58.2886307,121.097409 59.2373651,121.097409 C59.9274896,121.097409 60.7036929,120.946537 60.7036929,120.062595 C60.7036929,118.466869 56.2188174,118.229732 56.2188174,115.577346 C56.2188174,113.442554 58.0514938,112.989753 59.4097095,112.989753" id="Fill-29"></path>
            <path d="M75.7118091,112.989753 C76.7466224,112.989753 79.3338423,113.464214 79.3310415,115.512367 L79.3310415,121.151185 L79.6327842,121.452367 C79.7651701,121.442471 80.0717676,121.106558 80.5176598,120.937575 L80.5176598,122.0805 C79.71961,122.925977 79.2477635,122.822346 78.8166224,122.822346 C78.1263112,122.822346 77.6630539,122.928965 77.1652531,121.959131 C76.2030747,122.948757 75.7543817,122.822346 74.8491535,122.822346 C73.361166,122.822346 72.2613734,121.657948 72.2613734,120.49355 C72.2613734,117.539608 77.264029,117.798405 77.264029,116.267471 C77.264029,114.887222 76.1212905,114.887222 75.5390913,114.887222 C74.4607718,114.887222 73.984444,115.119131 72.6753361,116.438135 C71.5553776,113.537409 74.3315602,112.989753 75.7118091,112.989753 Z M77.2442365,118.014068 C76.2835519,118.100707 74.3315602,119.070728 74.3315602,120.148861 C74.3315602,120.838799 74.9137593,121.442471 75.7118091,121.442471 C76.1427635,121.442471 76.7081577,121.083031 77.2442365,120.70772 L77.2442365,118.014068 Z" id="Fill-31"></path>
            <path d="M87.8731245,112.989753 C88.843332,112.989753 88.7910498,113.031766 90.0262158,114.087865 C89.8525643,114.655873 89.4972324,115.194006 89.0972739,115.74801 C88.5152614,115.390438 87.7005934,114.887222 87.2692656,114.887222 C86.4714025,114.887222 85.0265477,115.965541 85.0138506,116.892429 L85.0138506,122.624421 L82.9815685,122.624421 L82.9815685,113.192533 L85.1611743,113.192533 C85.0233734,113.79023 85.0241203,114.435168 85.1270041,115.060873 C85.9676266,113.655044 86.6872531,112.989753 87.8731245,112.989753" id="Fill-33"></path>
            <path d="M114.007481,112.989753 C115.969369,112.989753 117.97495,114.218757 117.961506,116.547554 L117.961506,118.146828 L111.551154,118.146828 C111.551154,118.146828 111.420075,117.992409 111.420075,118.423737 C111.420075,120.515023 113.899556,120.924878 114.697232,120.924878 C115.904763,120.924878 116.627564,120.041496 117.957585,119.911724 L117.957585,121.559546 C116.768913,123.007015 115.40883,122.822346 114.352544,122.822346 C111.031693,122.822346 109.349888,120.234753 109.349888,117.819691 C109.349888,115.167678 111.139618,112.989753 114.007481,112.989753 M114.007481,114.714504 C113.29551,114.714504 111.506154,115.249463 111.443041,116.932015 L116.222938,116.932015 C116.336091,115.258425 114.84829,114.714504 114.007481,114.714504" id="Fill-35"></path>
            <path d="M125.478747,112.989753 C126.405822,112.989753 127.122461,112.960438 128.259224,114.544774 C130.485884,113.408571 129.791465,112.989753 131.343871,112.989753 C132.745407,112.989753 134.535137,114.0466 134.522253,115.685085 L134.522322,122.624421 L132.649805,122.624421 L132.649805,116.676766 C132.637295,115.31855 131.581008,114.714504 130.653747,114.714504 C129.705386,114.714504 129.8641,115.000189 128.652461,115.874981 L128.652461,122.624421 L126.784867,122.624421 L126.784867,116.504608 C126.772357,115.383156 125.953207,114.714504 124.96134,114.714504 C124.163104,114.714504 123.940905,114.692844 122.615925,115.87106 L122.615925,122.624421 L120.759722,122.624421 L120.759722,113.187865 L122.60827,113.187865 C122.632357,113.593612 122.623394,113.899649 122.745884,114.201766 C124.620759,113.236039 124.292876,112.989753 125.478747,112.989753" id="Fill-37"></path>
            <path d="M78.6438859,9.33609958e-05 C88.4337199,9.33609958e-05 92.9619149,7.05108921 92.9619149,15.094139 C92.9619149,18.7813382 90.8254419,24.297666 90.0826618,27.6192635 C94.6287822,25.4523548 99.711168,22.2528734 104.347102,22.2528734 C108.35789,22.2528734 110.557288,24.1288693 110.557288,28.0317324 C110.557288,36.0099896 101.770898,43.8525 93.1344461,47.3548444 C94.0131598,47.7275415 98.4821639,47.3089108 98.4821639,49.3359647 C98.4821639,51.6649481 92.4837199,54.932583 91.8802344,55.2345124 C86.2739066,58.1455083 82.8059191,59.1685581 77.5228071,59.1685581 C77.091666,59.1685581 72.4340726,58.6509647 72.0025581,58.6509647 C71.938139,58.6509647 65.4906286,61.4110892 62.4289481,61.4110892 C61.9974336,61.4110892 61.473305,61.3892427 59.5758361,61.2385581 C57.8294253,61.1093465 45.0059191,60.5700934 45.0059191,55.1150104 C45.0059191,54.6834959 45.1795705,54.2383506 45.3722676,53.2744917 C39.2946535,53.5190975 23.4430768,42.4356535 23.4430768,36.0533091 C23.4430768,32.9914419 25.8368527,32.7755913 27.669529,32.7755913 C31.5290726,32.7755913 32.2944461,34.005529 37.5982842,34.7193672 C31.6373714,28.154222 29.1354834,23.1153423 29.1354834,17.0776867 C29.1354834,9.72494813 34.1383257,5.86503112 40.6932012,5.86503112 C48.3267697,5.86503112 54.4794461,12.1570021 60.0867075,20.7014004 C63.3375373,9.03295643 67.431417,9.33609958e-05 78.6438859,9.33609958e-05 M77.6092593,8.62478216 C65.1459398,8.62534232 68.3584917,30.360529 61.5664793,30.360529 C56.1972884,30.360529 51.9491763,14.1454046 41.9009191,14.1454046 C38.1705871,14.1454046 35.3458568,17.4662552 35.3458568,21.0453423 C35.3458568,27.5357988 46.903388,37.2391805 46.903388,39.3308402 C46.903388,40.5381846 45.8441141,40.8403008 44.5818734,40.8836203 L31.1339689,38.1246162 C29.6861266,37.9298651 28.9633257,39.1151763 28.9633257,39.9345124 C28.9633257,49.3361515 52.5963548,50.716027 52.5963548,53.3895124 C52.5963548,53.8208402 50.526168,55.891027 50.526168,56.3223548 C50.526168,58.75889 59.9703797,59.5136203 61.221417,59.5136203 C67.0434087,59.5136203 67.0434087,56.0633714 70.536417,56.0633714 C70.9677448,56.0633714 77.7816037,57.2709025 78.2129315,57.2709025 C78.4500685,57.2709025 92.616666,55.891027 92.616666,52.2684336 C92.616666,51.0396162 84.6815415,51.0610892 84.6815415,48.9048237 C84.6815415,45.4332884 105.037039,43.1044917 105.037039,32.2579979 C105.037039,30.0800726 103.851168,28.8079357 101.414446,28.8079357 C96.9293838,28.8083091 87.3555871,35.7082469 83.6465415,35.7082469 C82.8488651,35.7082469 81.4040104,35.3848444 81.4040104,33.7245124 C81.4040104,31.0506535 86.4068527,22.4254046 86.4068527,17.164139 C86.4068527,11.989139 82.8059191,8.62534232 77.6092593,8.62478216" id="Fill-39"></path>
            <path d="M56.4036376,67.6464647 L61.7138589,67.6468382 L61.7138589,76.7032282 L66.3710788,76.7032282 L66.3710788,79.8440788 L61.7259959,79.8440788 L61.7259959,94.7689544 C61.7390664,95.9764855 63.3127593,98.6716307 64.9516183,98.684888 L67.4010373,98.684888 L67.4010373,100.877191 C66.4560373,100.608311 65.7494813,100.914349 64.930332,100.914349 C59.7764315,100.914349 56.3911618,97.2704689 56.4036722,92.2248672 L56.4036376,67.6464647 Z" id="Fill-41"></path>
            <path d="M12.0579647,76.418888 C15.4001017,76.418888 23.9605581,78.4676017 23.9480477,84.807 L23.9480614,97.4391162 L18.7978817,97.4391162 L18.7978817,85.6265228 C18.7853714,81.5078091 15.7453506,78.4890747 12.0579647,78.4890747 C8.26302697,78.4890747 5.50271577,81.6588672 5.49001867,85.152249 L5.49001867,97.3961701 L0.167695021,97.3961701 L0.167695021,85.9713983 C0.155184647,79.1790124 7.33520539,76.418888 12.0579647,76.418888" id="Fill-43"></path>
            <path d="M108.056147,76.5916245 C109.242019,76.5916245 109.112434,76.5916245 110.876396,76.616832 L110.876583,78.9820394 C110.298492,79.0066867 109.630027,79.0066867 109.198699,79.0066867 C105.942828,79.0066867 104.347102,80.9256286 104.334218,83.9447365 L104.334218,97.4391349 L99.0120419,97.4391349 L99.0120809,85.6265415 C98.9993838,80.6024129 102.083098,76.5916245 108.056147,76.5916245" id="Fill-45"></path>
            <path d="M39.91711,76.7640996 C44.7470477,76.7640996 51.5610934,80.0632905 51.5482095,86.5320871 L51.5482095,97.3961328 L46.2260726,97.3961328 L46.2260726,85.971361 C46.2135622,82.5644315 43.690388,78.6615685 39.8306577,78.6615685 C34.2676494,78.6615685 33.1030643,83.5779585 33.1030643,87.0280207 C33.1030643,91.4053444 35.2380436,95.0495975 40.1759066,95.0495975 C41.5128361,95.0494108 43.3369232,94.4726266 44.6376286,94.0299087 L44.6376286,95.864639 C42.7732095,97.3386224 40.7147863,97.8093485 38.9681888,97.8093485 C32.6504502,97.8093485 27.9280643,93.3890788 27.9280643,87.2870041 C27.9280643,80.0849502 34.1597241,76.7640996 39.91711,76.7640996" id="Fill-47"></path>
            <path d="M70.5490238,76.7895311 L75.6992054,76.7895311 L75.6992054,88.2141162 C75.7117158,91.7071245 78.4499938,95.5668548 82.3528568,95.5668548 C85.5655954,95.5668548 89.1667158,92.6775187 89.1794129,88.947 L89.1794129,76.7895311 L94.329593,76.7895311 L94.3295788,88.3862739 C94.3419025,95.6099876 86.2988527,97.8093859 82.266778,97.8093859 C78.2558029,97.8093859 70.5363423,94.9846556 70.5490394,88.947 L70.5490238,76.7895311 Z" id="Fill-49"></path>
            <path d="M123.408579,76.7640996 C127.74277,76.7640996 132.373102,78.0483734 134.866774,84.5970871 L134.866774,97.4392656 L129.545197,97.4392656 L129.545197,84.2464232 C129.5325,80.3650332 125.349554,78.6615685 123.149969,78.6615685 C117.414429,78.6615685 116.767438,83.6210913 116.767438,86.9417552 C116.767438,90.9954896 118.061048,95.0494108 123.581297,95.0494108 C125.133517,95.0495975 126.66221,94.4707593 128.303496,94.0315892 L128.303869,95.8625851 C126.634948,97.3356349 123.991151,97.8093485 122.460218,97.8093485 C116.357583,97.8093485 111.247376,93.0006971 111.247376,87.1142863 C111.247376,80.3217137 117.910363,76.7640996 123.408579,76.7640996" id="Fill-51"></path>
            <path d="M0,108.185228 L1.85190871,108.185228 L1.85190871,113.698195 C2.46286307,113.510166 3.10910788,112.989772 3.54043568,112.989772 L5.56711618,112.989772 C7.93960581,112.989772 8.6076971,117.474834 8.6076971,117.81971 C8.6076971,121.162033 6.51603734,122.822365 3.51896266,122.822365 C2.6346473,122.822365 1.16141079,122.935705 0,122.085747 L0,108.185228 Z M4.12263485,114.714523 C3.69112033,114.714523 2.60439834,115.249668 1.89690871,115.797137 L1.89690871,120.876909 C2.48022822,120.924896 3.15224066,120.924896 3.58356846,120.924896 C5.22242739,120.924896 6.53751037,119.997635 6.53751037,117.81971 C6.53751037,117.022033 5.97697095,114.714523 4.12263485,114.714523 Z" id="Fill-53"></path>
            <path d="M98.5012469,108.185228 L100.67133,108.185228 L100.67133,113.683817 C101.128052,112.918631 102.23382,112.989772 103.053156,112.989772 C106.158529,112.989772 107.107263,116.094772 107.107263,117.81971 C107.107263,121.162033 105.015604,122.822365 102.018529,122.822365 C100.875604,122.822365 100.190334,122.943174 98.5012469,122.091722 L98.5012469,108.185228 Z M102.622201,114.714523 C102.190687,114.714523 101.276683,115.07695 100.56882,115.624419 L100.56882,120.876909 C101.152326,120.924896 101.737886,120.924896 102.169214,120.924896 C104.51967,120.924896 105.037077,119.803631 105.037077,117.906349 C105.037077,117.00056 104.8216,114.714523 102.622201,114.714523 Z" id="Fill-55"></path>
            <path d="M67.5704315,111.270641 L67.5704315,113.117695 C67.7287718,113.171658 68.032195,113.162135 70.5962614,113.10033 L70.5962614,114.863172 L67.5905975,114.863172 L67.5911577,120.127052 C67.6040415,120.924915 68.8759917,121.097446 68.9841037,121.097446 C69.4150581,121.097446 70.239249,120.761533 71.0020083,120.414604 C71.6105353,122.322716 70.2347676,122.822384 68.7254938,122.822384 C67.1295809,122.822384 65.7063859,121.830703 65.7175892,119.997654 L65.7175892,114.902197 C65.2679627,114.887073 64.7647469,114.887073 64.1623817,114.882031 L67.5704315,111.270641 Z" id="Fill-57"></path>
            <path d="M15.4215934,112.989753 C17.4915934,112.989753 19.4755145,114.908695 19.4613237,117.237492 L19.4613237,118.150562 L13.0390207,118.150562 C12.8950581,118.312077 12.9202656,118.078488 12.9202656,118.510002 C12.9202656,120.774193 15.4215934,120.924878 16.1115311,120.924878 C17.6643112,120.924878 17.1106805,120.846454 19.2764689,119.903322 L19.2764689,121.747575 C16.818834,122.986102 17.6857842,122.822346 15.7664689,122.822346 C12.553917,122.822346 10.8500788,120.687927 10.8500788,117.819691 C10.8500788,115.167678 12.4891245,112.989753 15.4215934,112.989753 M15.3355145,114.714504 C14.4297261,114.714504 13.1799959,115.240127 12.9404315,116.931268 L17.5632946,116.931268 L17.5629212,116.17355 C17.3825477,115.066475 15.9391867,114.714504 15.3355145,114.714504" id="Fill-59"></path>
            <path d="M26.8931017,112.989753 C27.9927075,112.989753 28.5952593,113.254712 29.7398651,114.542533 C31.2080602,112.952035 31.6371473,112.989753 32.7580394,112.989753 C35.1732884,112.989753 36.0357573,115.081413 36.0230602,116.720272 L36.0231981,122.624421 L33.9780809,122.624421 L33.9780809,116.159732 C33.9655705,115.038093 32.4348237,114.714504 32.0681017,114.714504 C31.7446992,114.714504 30.1706328,114.973861 30.1465456,115.857616 L30.1465456,122.624421 L28.112583,122.624421 L28.112583,116.159732 C28.1006328,115.038093 26.9791805,114.714504 26.2896162,114.714504 C25.5561722,114.714504 25.1263382,114.684068 24.117666,115.865645 L24.117666,122.624421 L22.0879979,122.624421 L22.0879979,113.187865 L24.1087033,113.187865 C24.1333506,113.593612 24.1240145,113.900023 24.2315664,114.198031 C25.2994295,113.016641 26.1383714,112.989753 26.8931017,112.989753" id="Fill-61"></path>
            <path d="M49.8360996,112.989753 C51.5610373,112.989753 53.9760996,114.218757 53.9626556,116.547554 L53.9626556,118.150002 L47.540166,118.150002 C47.3956432,118.312077 47.4208506,118.16494 47.4208506,118.596081 C47.4208506,120.730873 49.9440249,120.924878 50.5260373,120.924878 C51.7765145,120.924878 52.3557261,120.346039 53.9548133,119.906869 L53.9548133,121.56384 C52.4614108,123.013737 51.3022407,122.822346 50.1809751,122.822346 C46.644834,122.822346 45.3508506,120.23494 45.3508506,117.819691 C45.3508506,115.167678 46.7523859,112.989753 49.8360996,112.989753 M49.8360996,114.714504 C49.1889212,114.714504 47.163361,115.267761 47.4507261,116.935002 L52.0513693,116.935002 C52.1645228,115.258425 50.6769087,114.714504 49.8360996,114.714504" id="Fill-63"></path>
            <path d="M59.4097095,112.989753 C60.5315353,112.989753 60.6829668,112.893778 62.0553734,113.72301 L62.0553734,115.567077 C61.0905809,115.047616 59.9274896,114.714504 59.4963485,114.714504 C59.1512863,114.714504 58.2886307,114.908695 58.2886307,115.490894 C58.2886307,116.741932 62.6013485,117.64716 62.6013485,120.062595 C62.6013485,122.369546 60.8330913,122.822346 59.3236307,122.822346 C58.2021784,122.822346 57.773278,122.941662 56.2509336,122.09021 L56.2509336,119.8966 C57.0745643,120.559276 58.2886307,121.097409 59.2373651,121.097409 C59.9274896,121.097409 60.7036929,120.946537 60.7036929,120.062595 C60.7036929,118.466869 56.2188174,118.229732 56.2188174,115.577346 C56.2188174,113.442554 58.0514938,112.989753 59.4097095,112.989753" id="Fill-65"></path>
            <path d="M75.7118091,112.989753 C76.7466224,112.989753 79.3338423,113.464214 79.3310415,115.512367 L79.3310415,121.151185 L79.6327842,121.452367 C79.7651701,121.442471 80.0717676,121.106558 80.5176598,120.937575 L80.5176598,122.0805 C79.71961,122.925977 79.2477635,122.822346 78.8166224,122.822346 C78.1263112,122.822346 77.6630539,122.928965 77.1652531,121.959131 C76.2030747,122.948757 75.7543817,122.822346 74.8491535,122.822346 C73.361166,122.822346 72.2613734,121.657948 72.2613734,120.49355 C72.2613734,117.539608 77.264029,117.798405 77.264029,116.267471 C77.264029,114.887222 76.1212905,114.887222 75.5390913,114.887222 C74.4607718,114.887222 73.984444,115.119131 72.6753361,116.438135 C71.5553776,113.537409 74.3315602,112.989753 75.7118091,112.989753 Z M77.2442365,118.014068 C76.2835519,118.100707 74.3315602,119.070728 74.3315602,120.148861 C74.3315602,120.838799 74.9137593,121.442471 75.7118091,121.442471 C76.1427635,121.442471 76.7081577,121.083031 77.2442365,120.70772 L77.2442365,118.014068 Z" id="Fill-67"></path>
            <path d="M87.8731245,112.989753 C88.843332,112.989753 88.7910498,113.031766 90.0262158,114.087865 C89.8525643,114.655873 89.4972324,115.194006 89.0972739,115.74801 C88.5152614,115.390438 87.7005934,114.887222 87.2692656,114.887222 C86.4714025,114.887222 85.0265477,115.965541 85.0138506,116.892429 L85.0138506,122.624421 L82.9815685,122.624421 L82.9815685,113.192533 L85.1611743,113.192533 C85.0233734,113.79023 85.0241203,114.435168 85.1270041,115.060873 C85.9676266,113.655044 86.6872531,112.989753 87.8731245,112.989753" id="Fill-69"></path>
            <path d="M114.007481,112.989753 C115.969369,112.989753 117.97495,114.218757 117.961506,116.547554 L117.961506,118.146828 L111.551154,118.146828 C111.551154,118.146828 111.420075,117.992409 111.420075,118.423737 C111.420075,120.515023 113.899556,120.924878 114.697232,120.924878 C115.904763,120.924878 116.627564,120.041496 117.957585,119.911724 L117.957585,121.559546 C116.768913,123.007015 115.40883,122.822346 114.352544,122.822346 C111.031693,122.822346 109.349888,120.234753 109.349888,117.819691 C109.349888,115.167678 111.139618,112.989753 114.007481,112.989753 M114.007481,114.714504 C113.29551,114.714504 111.506154,115.249463 111.443041,116.932015 L116.222938,116.932015 C116.336091,115.258425 114.84829,114.714504 114.007481,114.714504" id="Fill-71"></path>
            <path d="M125.478747,112.989753 C126.405822,112.989753 127.122461,112.960438 128.259224,114.544774 C130.485884,113.408571 129.791465,112.989753 131.343871,112.989753 C132.745407,112.989753 134.535137,114.0466 134.522253,115.685085 L134.522322,122.624421 L132.649805,122.624421 L132.649805,116.676766 C132.637295,115.31855 131.581008,114.714504 130.653747,114.714504 C129.705386,114.714504 129.8641,115.000189 128.652461,115.874981 L128.652461,122.624421 L126.784867,122.624421 L126.784867,116.504608 C126.772357,115.383156 125.953207,114.714504 124.96134,114.714504 C124.163104,114.714504 123.940905,114.692844 122.615925,115.87106 L122.615925,122.624421 L120.759722,122.624421 L120.759722,113.187865 L122.60827,113.187865 C122.632357,113.593612 122.623394,113.899649 122.745884,114.201766 C124.620759,113.236039 124.292876,112.989753 125.478747,112.989753" id="Fill-73"></path>
        </g>
    </g>
</svg>