<?xml version="1.0" encoding="UTF-8"?>
<svg width="148px" height="148px" viewBox="0 0 148 148" version="1.1" xmlns="http://www.w3.org/2000/svg" xmlns:xlink="http://www.w3.org/1999/xlink">
    <!-- Generator: Sketch 52.5 (67469) - http://www.bohemiancoding.com/sketch -->
    <title>Artboard</title>
    <desc>Created with Sketch.</desc>
    <g id="Artboard" stroke="none" stroke-width="1" fill="none" fill-rule="evenodd">
        <g id="Group-25" transform="translate(7.000000, 57.000000)" fill="#EFEFEF">
            <path d="M59.3052649,24.1033097 C59.3052649,26.7925634 58.2810112,29.0821903 56.233847,30.9731978 C54.1860112,32.8652127 51.7241082,33.8102127 48.8481381,33.8102127 C47.1599664,33.8102127 45.1436978,33.2943918 42.7989963,32.26275 C42.1733619,31.9813321 41.7042201,31.8406231 41.3922425,31.8406231 C41.0171306,31.8406231 40.7823918,32.2738321 40.6886978,33.1389067 C40.6571306,33.5858843 40.4542948,33.8102127 40.0791828,33.8102127 C39.7661978,33.8102127 39.6103769,33.6228246 39.6103769,33.2473769 C39.6103769,32.9975261 39.6254888,32.8101381 39.657056,32.6848769 C39.9069067,30.7784216 40.0321679,29.0116679 40.0321679,27.3856231 C40.0321679,27.0739813 40.0009366,26.1981604 39.9384739,24.7598396 C39.9069067,24.5721157 39.891459,24.3222649 39.891459,24.0096157 C39.891459,23.5404739 40.0791828,23.3060709 40.4542948,23.3060709 C40.7662724,23.3060709 40.9855634,23.6848769 41.1108246,24.4424888 C41.9235112,30.0624515 44.5647425,32.8722649 49.0358619,32.8722649 C50.9423172,32.8722649 52.4195933,32.3332724 53.4673545,31.2546157 C54.5141082,30.175959 55.0379888,28.6520037 55.0379888,26.6824142 C55.0379888,24.9321157 54.529556,23.4393918 53.5140336,22.2042425 C52.4978396,20.9694291 50.7549291,19.7423396 48.2856381,18.5229739 C45.3149664,17.0537575 43.2516828,15.631556 42.0954515,14.2556978 C40.9385485,12.8805112 40.3606007,11.1768918 40.3606007,9.14450373 C40.3606007,6.54961567 41.196459,4.40808582 42.8695187,2.71991418 C44.5412351,1.03174254 46.6595933,0.187824627 49.2235858,0.187824627 C50.2857873,0.187824627 51.7556754,0.547488806 53.6312351,1.26614552 C54.2877649,1.51666791 54.7720187,1.64125746 55.0850037,1.64125746 C55.4288843,1.64125746 55.6552276,1.5791306 55.765041,1.4538694 C55.8741828,1.32927985 55.9759366,1.00118284 56.0699664,0.469242537 C56.1320933,0.156929104 56.3043694,0.000100746269 56.5854515,0.000100746269 C56.8977649,0.000100746269 57.0545933,0.187824627 57.0545933,0.562936567 C57.0545933,0.813458955 57.0384739,1.00118284 57.0075784,1.12543657 C56.9138843,1.87599627 56.8668694,2.78304851 56.8668694,3.84525 C56.8668694,5.34603358 56.9447799,6.53450373 57.1016082,7.40931716 L57.1482873,8.15954104 C57.1791828,8.50375746 57.0384739,8.67536194 56.7261604,8.67536194 C56.381944,8.67536194 56.147541,8.3163694 56.0229515,7.59670522 C55.6787351,5.75237687 54.8660485,4.21297388 53.584556,2.97782463 C52.302056,1.74334701 50.8647425,1.12543657 49.2702649,1.12543657 C47.7066828,1.12543657 46.4641455,1.6258097 45.5423172,2.62622015 C44.6198172,3.62696642 44.1587351,4.98704104 44.1587351,6.70577239 C44.1587351,8.7069291 44.8307127,10.3165187 46.1753396,11.5358843 C46.9255634,12.2239813 48.5509366,13.1931604 51.0521306,14.4430858 C53.9902276,15.9129739 56.1005261,17.4056978 57.3826903,18.9215933 C58.6645187,20.4384963 59.3052649,22.1652873 59.3052649,24.1033097" id="Fill-1"></path>
            <path d="M74.3578321,18.5699552 C74.2325709,14.8185 72.887944,12.9426045 70.324959,12.9426045 C67.7925336,12.9426045 66.2135037,14.8185 65.5888769,18.5699552 L74.3578321,18.5699552 Z M78.4373843,28.1361493 C78.4373843,28.4487985 78.1949216,29.0035746 77.7103321,29.8008134 C77.2254067,30.5980522 76.7330933,31.247194 76.2333918,31.7468955 C74.8891007,33.1227537 73.0914515,33.8101791 70.840444,33.8101791 C68.0269366,33.8101791 65.6745112,32.7946567 63.7835037,30.7622687 C61.8914888,28.7302164 60.946153,26.2135746 60.946153,23.2123433 C60.946153,20.0865224 61.8444739,17.4758507 63.6427948,15.381 C65.4397724,13.2871567 67.6827201,12.2390597 70.3719739,12.2390597 C72.5910784,12.2390597 74.4515261,12.8885373 75.9519739,14.1851418 C77.4527575,15.4830896 78.2499963,17.1477537 78.3436903,19.1794701 C77.342944,19.3362985 76.0144366,19.3984254 74.3578321,19.367194 L71.0751828,19.367194 C70.8558918,19.367194 68.9803321,19.4138731 65.4481679,19.5072313 C65.2913396,20.5358507 65.2137649,21.5167836 65.2137649,22.4510373 C65.2137649,25.5973433 65.8152201,28.0189478 67.0188022,29.7165224 C68.2220485,31.4144328 69.9182799,32.2627164 72.1068246,32.2627164 C73.3570858,32.2627164 74.3578321,31.9812985 75.108056,31.4184627 C75.8582799,30.8559627 76.6709664,29.7776418 77.5464515,28.1828284 C77.671041,27.9329776 77.8433172,27.8077164 78.0622724,27.8077164 C78.3121231,27.8077164 78.4373843,27.9175299 78.4373843,28.1361493 Z" id="Fill-3"></path>
            <path d="M101.227131,32.9910784 C101.227131,33.2248097 100.992728,33.3413396 100.523586,33.3413396 L99.96075,33.3413396 L97.6633993,33.3413396 L92.2234366,33.3413396 L91.8953396,33.3413396 C91.4886604,33.3413396 91.2854888,33.2321978 91.2854888,33.0135784 C91.2854888,32.8584291 91.371459,32.7647351 91.5437351,32.7331679 C91.7150037,32.7026082 92.3174664,32.671041 93.3491082,32.6394739 C93.9425037,32.6085784 94.2867201,32.5226082 94.3804142,32.3822351 C94.474444,32.2425336 94.5211231,31.735444 94.5211231,30.8616381 L94.5211231,21.8794366 C94.5211231,18.4805933 94.3958619,16.4529067 94.146347,15.798056 C93.6140709,14.3949963 92.5518694,13.6931306 90.9573918,13.6931306 C89.3938097,13.6931306 88.0810858,14.3795485 87.0182127,15.751041 C86.7055634,16.1570485 86.5494067,16.7182052 86.5494067,17.4355187 L86.5494067,32.0313022 C86.5494067,32.4057425 86.8828769,32.6085784 87.550153,32.6394739 L88.9804142,32.6864888 C89.2981007,32.6864888 89.456944,32.7952948 89.456944,33.0135784 C89.456944,33.2321978 89.269556,33.3413396 88.8941082,33.3413396 L88.1438843,33.3413396 L84.8615709,33.3413396 L82.6340709,33.3413396 L80.6409739,33.3413396 L80.359556,33.3413396 C79.89075,33.3413396 79.656347,33.2463022 79.656347,33.0538769 C79.656347,32.8627948 79.9374291,32.7398843 80.5002649,32.6848097 L81.6726157,32.6848097 C82.1414216,32.6848097 82.4228396,32.5756679 82.5165336,32.3570485 L82.6572425,31.6558545 L82.6572425,21.4603321 C82.6572425,17.9060037 82.6256754,15.9414515 82.5635485,15.567347 C82.5004142,15.1935784 82.1098545,15.0058545 81.3911978,15.0058545 L80.2658619,15.0058545 L80.031459,15.0058545 C79.4058246,15.0058545 79.0935112,14.8903321 79.0935112,14.6572724 C79.0935112,14.3583918 79.4216082,14.2086157 80.0781381,14.2086157 C81.01575,14.178056 82.0316082,14.0057799 83.1263843,13.6931306 C84.220153,13.3808172 84.9858246,13.021153 85.4237351,12.6144739 C85.705153,12.3646231 85.9237724,12.2393619 86.0802649,12.2393619 C86.2988843,12.2393619 86.4086978,12.5368993 86.4086978,13.1302948 L86.4086978,15.3813022 C88.0340709,13.2871231 90.1285858,12.2393619 92.6925784,12.2393619 C94.94325,12.2393619 96.5686231,13.0678321 97.5693694,14.7244366 C98.1322052,15.6623843 98.4136231,17.4445858 98.4136231,20.0703694 L98.4136231,30.7622351 C98.4136231,31.7629813 98.4606381,32.3096978 98.5543321,32.4033918 C98.7417201,32.5911157 99.1944067,32.6848097 99.9140709,32.6848097 L100.429892,32.6848097 L100.758325,32.6848097 C101.070302,32.6848097 101.227131,32.7875709 101.227131,32.9910784" id="Fill-5"></path>
            <path d="M115.998313,27.2775224 C115.998313,29.0943134 115.33809,30.6377463 114.019321,31.9064776 C112.699881,33.1755448 111.124545,33.8102463 109.292642,33.8102463 C108.236821,33.8102463 106.948948,33.4351343 105.427679,32.6849104 C105.023015,32.466291 104.666373,32.3564776 104.35641,32.3564776 C103.921187,32.3564776 103.595104,32.6540149 103.378164,33.2474104 C103.25391,33.6228582 103.082978,33.8102463 102.866373,33.8102463 C102.648425,33.8102463 102.539955,33.6849851 102.539955,33.4351343 L102.539955,32.8722985 L102.539955,30.105806 L102.539955,28.9801343 L102.539955,27.6670746 L102.539955,27.1512537 C102.539955,26.8080448 102.649097,26.6354328 102.868052,26.6354328 C103.118239,26.6354328 103.258612,26.8090522 103.290179,27.1552836 C103.477903,28.6043507 103.88391,29.7377463 104.509545,30.5564776 C105.759806,32.1946119 107.432194,33.0130075 109.527045,33.0130075 C110.652716,33.0130075 111.558761,32.6842388 112.246858,32.0263657 C112.934284,31.3681567 113.2785,30.4909925 113.2785,29.3942015 C113.2785,28.1721493 112.887269,27.2009552 112.106149,26.4802836 C111.667903,26.0729328 111.269619,25.7834552 110.910627,25.6105075 C110.550627,25.4382313 109.495813,25.0228209 107.745179,24.3649478 C104.275142,23.0488657 102.539955,21.0749104 102.539955,18.4430821 C102.539955,16.6890896 103.129321,15.2161791 104.307381,14.025694 C105.48544,12.8348731 106.943575,12.2391269 108.680776,12.2391269 C109.301037,12.2391269 110.231261,12.4268507 111.471784,12.8019627 C111.781746,12.8956567 112.060813,12.9426716 112.309321,12.9426716 C112.960478,12.9426716 113.363463,12.6303582 113.518948,12.0047239 C113.612306,11.6927463 113.752007,11.5359179 113.938052,11.5359179 C114.154993,11.5359179 114.263463,11.6611791 114.263463,11.9110299 L114.263463,12.1924478 L114.263463,14.1617015 C114.231896,14.9122612 114.310478,16.1161791 114.497866,17.7727836 L114.497866,17.8664776 C114.497866,18.117 114.372604,18.2415896 114.122754,18.2415896 C113.93503,18.2415896 113.700627,17.7690896 113.419209,16.8224104 C113.074993,15.6866642 112.473537,14.7722239 111.613836,14.0777463 C110.753799,13.3836045 109.761784,13.0363657 108.636112,13.0363657 C107.572903,13.0363657 106.697418,13.3654701 106.010328,14.0233433 C105.322231,14.6815522 104.978687,15.5123731 104.978687,16.5147985 C104.978687,18.0810672 106.025776,19.2718881 108.120291,20.0865896 C111.371373,21.3717761 113.434657,22.437 114.310478,23.282597 C115.435813,24.3793881 115.998313,25.7109179 115.998313,27.2775224" id="Fill-7"></path>
            <path d="M130.910877,18.5699552 C130.785616,14.8185 129.440989,12.9426045 126.878004,12.9426045 C124.345578,12.9426045 122.766549,14.8185 122.141922,18.5699552 L130.910877,18.5699552 Z M134.990429,28.1361493 C134.990429,28.4487985 134.747966,29.0035746 134.263377,29.8008134 C133.778451,30.5980522 133.286138,31.247194 132.786437,31.7468955 C131.442146,33.1227537 129.644496,33.8101791 127.393489,33.8101791 C124.579981,33.8101791 122.227556,32.7946567 120.336549,30.7622687 C118.444534,28.7302164 117.499198,26.2135746 117.499198,23.2123433 C117.499198,20.0865224 118.397519,17.4758507 120.19584,15.381 C121.992817,13.2871567 124.235765,12.2390597 126.925019,12.2390597 C129.144123,12.2390597 131.004571,12.8885373 132.505019,14.1851418 C134.005802,15.4830896 134.803041,17.1477537 134.896735,19.1794701 C133.895989,19.3362985 132.567481,19.3984254 130.910877,19.367194 L127.628228,19.367194 C127.408937,19.367194 125.533377,19.4138731 122.001213,19.5072313 C121.844384,20.5358507 121.76681,21.5167836 121.76681,22.4510373 C121.76681,25.5973433 122.368265,28.0189478 123.571847,29.7165224 C124.775093,31.4144328 126.471325,32.2627164 128.659869,32.2627164 C129.910131,32.2627164 130.910877,31.9812985 131.661101,31.4184627 C132.411325,30.8559627 133.224011,29.7776418 134.099496,28.1828284 C134.224086,27.9329776 134.396362,27.8077164 134.615317,27.8077164 C134.865168,27.8077164 134.990429,27.9175299 134.990429,28.1361493 Z" id="Fill-9"></path>
            <path d="M2.22417537,17.5658843 C2.22417537,17.9910336 1.87928731,18.3359216 1.45413806,18.3359216 C1.02898881,18.3359216 0.684100746,17.9910336 0.684100746,17.5658843 C0.684100746,17.1407351 1.02898881,16.795847 1.45413806,16.795847 C1.87928731,16.795847 2.22417537,17.1407351 2.22417537,17.5658843" id="Fill-11"></path>
            <path d="M10.0087388,2.5438097 C10.0087388,2.96895896 9.66385075,3.31384701 9.23870149,3.31384701 C8.81355224,3.31384701 8.46866418,2.96895896 8.46866418,2.5438097 C8.46866418,2.11866045 8.81355224,1.77377239 9.23870149,1.77377239 C9.66385075,1.77377239 10.0087388,2.11866045 10.0087388,2.5438097" id="Fill-13"></path>
            <path d="M26.8232575,2.83510075 C26.8232575,3.26025 26.4783694,3.60513806 26.0532201,3.60513806 C25.6280709,3.60513806 25.2831828,3.26025 25.2831828,2.83510075 C25.2831828,2.40995149 25.6280709,2.06506343 26.0532201,2.06506343 C26.4783694,2.06506343 26.8232575,2.40995149 26.8232575,2.83510075" id="Fill-15"></path>
            <path d="M35.1307948,15.1966679 C35.1307948,15.6218172 34.7859067,15.9667052 34.3607575,15.9667052 C33.9356082,15.9667052 33.5907201,15.6218172 33.5907201,15.1966679 C33.5907201,14.7715187 33.9356082,14.4266306 34.3607575,14.4266306 C34.7859067,14.4266306 35.1307948,14.7715187 35.1307948,15.1966679" id="Fill-17"></path>
            <path d="M26.3675821,30.551541 C26.3675821,30.9766903 26.022694,31.3215784 25.5975448,31.3215784 C25.1723955,31.3215784 24.8275075,30.9766903 24.8275075,30.551541 C24.8275075,30.1263918 25.1723955,29.7815037 25.5975448,29.7815037 C26.022694,29.7815037 26.3675821,30.1263918 26.3675821,30.551541" id="Fill-19"></path>
            <path d="M10.7787761,31.0478172 C10.7787761,31.4729664 10.4338881,31.8178545 10.0087388,31.8178545 C9.58358955,31.8178545 9.23870149,31.4729664 9.23870149,31.0478172 C9.23870149,30.6226679 9.58358955,30.2777799 10.0087388,30.2777799 C10.4338881,30.2777799 10.7787761,30.6226679 10.7787761,31.0478172" id="Fill-21"></path>
            <path d="M17.9800522,20.8868843 C15.8180373,20.8868843 14.0653881,19.1342351 14.0653881,16.9722201 C14.0653881,14.810541 15.8180373,13.0578918 17.9800522,13.0578918 C20.1420672,13.0578918 21.8947164,14.810541 21.8947164,16.9722201 C21.8947164,19.1342351 20.1420672,20.8868843 17.9800522,20.8868843 M35.9095299,12.4655037 C35.8155,12.3016231 35.6663955,12.2536007 35.4638955,12.3217724 C35.1223657,12.4446828 34.8970299,12.495056 34.7878881,12.4728918 C34.6780746,12.4507276 34.5662463,12.3395709 34.4513955,12.1394216 C34.3466194,11.9570709 34.2576269,11.6330037 34.1840821,11.1665485 C33.976209,9.83333955 33.6944552,8.85610075 33.3394925,8.23684701 C32.4824776,6.74277985 31.2825896,5.79005597 29.7394925,5.37968284 C28.1963955,4.96897388 26.6687463,5.19733209 25.1565448,6.06475746 C23.9717687,6.74412313 23.1721791,7.65016791 22.7571045,8.78423507 C22.5163209,9.44143657 22.3712463,10.2873694 22.3158358,11.3102799 C21.6092687,10.81125 20.7650149,10.31625 19.7830746,9.82494403 C18.102291,8.98505597 17.0102015,8.33389925 16.5061343,7.87147388 C15.6027761,7.0520709 15.1514328,5.97072761 15.1514328,4.62610075 C15.1514328,3.47121269 15.4610597,2.55744403 16.0806493,1.8851306 C16.7002388,1.21281716 17.5350896,0.876660448 18.5858731,0.876660448 C19.656806,0.876660448 20.6229627,1.29173507 21.4843433,2.12121269 C22.3453881,2.95136194 22.8914328,3.9856903 23.1228134,5.2248694 C23.2064328,5.70811567 23.3639328,5.9495709 23.5953134,5.9495709 C23.8052015,5.9495709 23.8995672,5.83438433 23.8790821,5.60300373 L23.8475149,5.09860075 C23.7420672,4.51091418 23.6900149,3.71233209 23.6900149,2.70419776 C23.6900149,1.99024254 23.7215821,1.38072761 23.7843806,0.876660448 C23.8052015,0.793041045 23.8159478,0.667108209 23.8159478,0.498526119 C23.8159478,0.246660448 23.7105,0.120391791 23.5009478,0.120391791 C23.3118806,0.120391791 23.1960224,0.225839552 23.1543806,0.435727612 C23.0912463,0.793041045 23.0230746,1.01333955 22.9495299,1.09729478 C22.8756493,1.18125 22.7235224,1.22322761 22.4928134,1.22322761 C22.2825896,1.22322761 21.9568433,1.13960821 21.5159104,0.971026119 C20.2555746,0.488451493 19.2679254,0.246660448 18.554306,0.246660448 C16.8315448,0.246660448 15.4083358,0.813526119 14.2850149,1.9479291 C13.1610224,3.08233209 12.599194,4.52132463 12.599194,6.2645709 C12.599194,7.63035448 12.9877388,8.77483209 13.7648284,9.69901119 C13.8669179,9.82024254 13.9807612,9.94214552 14.1040075,10.0647201 C13.3050896,10.3525187 12.4353134,10.7467724 11.4913209,11.2525187 C9.83538806,12.1404291 8.67344776,12.65625 8.00516418,12.8013246 C6.8146791,13.0662873 5.67087313,12.8107276 4.57273881,12.0349813 C3.62941791,11.3683769 3.0618806,10.5879291 2.87046269,9.69397388 C2.67904478,8.80035448 2.88624627,7.92419776 3.49240299,7.06617537 C4.11064925,6.19136194 5.00729104,5.64195896 6.18165672,5.41729478 C7.35669403,5.19296642 8.51628358,5.34408582 9.66176866,5.86998134 C10.1050522,6.08087687 10.3928507,6.09128731 10.5265075,5.90255597 C10.647403,5.73128731 10.6081119,5.58755597 10.4069552,5.4706903 L9.97710448,5.20572761 C9.43643284,4.95251866 8.75404478,4.53408582 7.93061194,3.95244403 C7.34762687,3.54039179 6.86807463,3.1629291 6.49262687,2.82072761 C6.43620896,2.75524254 6.33982836,2.67397388 6.20214179,2.57658582 C5.99628358,2.43117537 5.83273881,2.44460821 5.71150746,2.61587687 C5.60236567,2.77001866 5.62184328,2.92550373 5.76893284,3.08065299 C6.02449254,3.33822761 6.16486567,3.52158582 6.1910597,3.62972015 C6.21725373,3.73852612 6.16352239,3.88695896 6.03020149,4.0756903 C5.90897015,4.24729478 5.65273881,4.46490672 5.26083582,4.72785448 C4.13919403,5.47841418 3.37184328,6.14535448 2.95979104,6.72833955 C1.96576119,8.13509328 1.6074403,9.62479478 1.8855,11.1967724 C2.16322388,12.7694216 3.01419403,14.0586381 4.43807463,15.0647575 C5.55333582,15.8525933 6.71225373,16.1961381 7.9155,16.0943843 C8.5841194,16.0383022 9.37329851,15.82875 10.2746418,15.4764739 C10.2205746,15.9922948 10.1950522,16.5521082 10.2000896,17.1589366 C10.1900149,17.3224813 10.1802761,17.4863619 10.182291,17.6542724 C10.1856493,17.9145336 10.2111716,18.1670709 10.2487836,18.4155784 C10.2585224,18.564347 10.2662463,18.7100933 10.2786716,18.8632276 C10.4341567,20.7357649 10.4445672,22.0071828 10.3112463,22.678153 C10.0805373,23.8756903 9.39076119,24.823041 8.24191791,25.5215485 C7.2549403,26.1213246 6.31296269,26.3312127 5.41665672,26.1508769 C4.52068657,25.970541 3.7996791,25.4318843 3.25397015,24.5338993 C2.69751493,23.6184515 2.55042537,22.5774067 2.81202985,21.4104291 C3.07397015,20.2434515 3.67441791,19.2396828 4.61303731,18.3984515 C4.98277612,18.0760634 5.10702985,17.8161381 4.98714179,17.6183396 C4.878,17.4390112 4.73057463,17.4181903 4.54352239,17.5558769 L4.1291194,17.8446828 C3.68147015,18.239944 3.02628358,18.699347 2.16456716,19.2228918 C1.55471642,19.5936381 1.01740299,19.8834515 0.553970149,20.0913246 C0.47169403,20.1171828 0.358186567,20.1732649 0.214455224,20.2609142 C-0.00114179104,20.3915485 -0.0538656716,20.5470336 0.0549402985,20.7263619 C0.153,20.8878918 0.30311194,20.9322201 0.504268657,20.8590112 C0.842440299,20.7270336 1.06643284,20.6709515 1.17591045,20.6904291 C1.2860597,20.7095709 1.40091045,20.818041 1.52079851,21.0151679 C1.63027612,21.1948321 1.72766418,21.5165485 1.81296269,21.9809888 C2.05475373,23.3084888 2.36102239,24.2780037 2.73176866,24.8881903 C3.62639552,26.3600933 4.85046269,27.2819216 6.40296269,27.6526679 C7.95613433,28.0240858 9.47773881,27.7567724 10.9674403,26.8513993 C12.1344179,26.1421455 12.9108358,25.2159515 13.296694,24.0714739 C13.418597,23.7111381 13.5079254,23.2913619 13.572403,22.8242351 C13.6378881,22.8668843 13.7003507,22.9098694 13.7681866,22.9525187 C13.9948657,23.1362127 14.2319552,23.311847 14.4918806,23.4700187 C14.8814328,23.7071082 15.2847537,23.8871082 15.6998284,24.0157276 C15.7381119,24.0345336 15.7730373,24.0533396 15.8116567,24.0721455 C17.5031866,24.8898694 18.6036716,25.5269216 19.1137836,25.9826306 C20.0278881,26.789944 20.4933358,27.8655784 20.5107985,29.2102052 C20.5259104,30.3650933 20.2280373,31.282556 19.6171791,31.9632649 C19.0066567,32.6433022 18.1761716,32.9902052 17.1257239,33.0039739 C16.0544552,33.0180784 15.0832612,32.6154291 14.2107985,31.7973694 C13.3393433,30.9786381 12.7798657,29.9513619 12.5323657,28.715541 C12.4423657,28.2333022 12.2815075,27.9938619 12.0501269,27.9968843 C11.8405746,27.9995709 11.7475522,28.1161007 11.7710597,28.3471455 L11.8093433,28.8508769 C11.9221791,29.4372201 11.9849776,30.2351306 11.9980746,31.2432649 C12.0074776,31.9568843 11.9836343,32.5667351 11.9272164,33.0718097 C11.9077388,33.1557649 11.8986716,33.2816978 11.9006866,33.4502799 C11.9040448,33.7021455 12.0111716,33.8270709 12.2207239,33.8240485 C12.409791,33.8216978 12.5239701,33.7149067 12.5632612,33.5046828 C12.6213582,33.1463619 12.6871791,32.925056 12.7593806,32.8404291 C12.8319179,32.7551306 12.983709,32.7114739 13.2144179,32.7084515 C13.4246418,32.7057649 13.7513955,32.7850187 14.1943433,32.947556 C15.4610597,33.4140112 16.4517313,33.643041 17.1653507,33.6336381 C18.8877761,33.6111381 20.303597,33.0254664 21.4121418,31.8766231 C22.5213582,30.7277799 23.0640448,29.2817351 23.0415448,27.5384888 C23.0234104,26.173041 22.6204254,25.0336007 21.8309104,24.1198321 C21.5807239,23.8296828 21.2623657,23.5375187 20.8896045,23.2430037 C21.5259851,22.935056 22.2019925,22.5575933 22.919306,22.1075933 C24.5104254,21.1085261 25.6344179,20.514459 26.2916194,20.3240485 C27.4612836,19.978153 28.6198657,20.1551306 29.7683731,20.8539739 C30.7546791,21.4544216 31.3742687,22.1942351 31.6264701,23.0730784 C31.8786716,23.9515858 31.7319179,24.8398321 31.1855373,25.7371455 C30.6287463,26.6522575 29.7720672,27.2614366 28.6155,27.5663619 C27.458597,27.8702799 26.2912836,27.79875 25.1125522,27.352444 C24.6561716,27.172444 24.3680373,27.1815112 24.2478134,27.3793097 C24.1386716,27.5583022 24.1880373,27.6990112 24.3962463,27.8017724 L24.8432239,28.036847 C25.4003507,28.252444 26.1096045,28.6228545 26.9706493,29.1470709 C27.5805,29.518153 28.084903,29.8620336 28.4828507,30.178041 C28.5432985,30.2391604 28.6453881,30.3140485 28.7891194,30.4013619 C29.0047164,30.5326679 29.1669179,30.508153 29.2760597,30.3288246 C29.3744552,30.1676306 29.3445672,30.0138246 29.1870672,29.8690858 C28.9143806,29.6293097 28.7619179,29.4563619 28.7283358,29.3502425 C28.6947537,29.2434515 28.7380746,29.0916604 28.8582985,28.8941978 C28.9674403,28.7148694 29.2082239,28.4801306 29.5813209,28.1909888 C30.6492313,27.365541 31.3692313,26.647556 31.7403134,26.0377052 C32.6356119,24.5664739 32.8915075,23.0556157 32.5063209,21.5061381 C32.121806,19.9563246 31.1845299,18.7285634 29.6955,17.8221828 C28.5288582,17.1122575 27.3491194,16.8486381 26.1556119,17.0323321 C25.9776269,17.0598694 25.7892313,17.101847 25.5957985,17.1518843 C25.6908358,16.2542351 25.7076269,15.2286381 25.6414701,14.0677052 C25.5340075,12.1918097 25.5558358,10.9207276 25.7059478,10.2534515 C25.9672164,9.06195896 26.6811716,8.13240672 27.8474776,7.46345149 C28.8492313,6.88919776 29.7959104,6.70315299 30.6875149,6.90632463 C31.5787836,7.10916045 32.2856866,7.66628731 32.8085597,8.57770522 C33.3415075,9.50692164 33.4617313,10.5513246 33.1709104,11.7115858 C32.8790821,12.8711754 32.2534478,13.8594963 31.2936716,14.6765485 C30.9158731,14.9895336 30.784903,15.2464366 30.8997537,15.4469216 C31.004194,15.6289366 31.1512836,15.6537873 31.341694,15.5208022 L31.7634851,15.2424067 C32.2208731,14.8588993 32.8874776,14.4162873 33.762291,13.9145709 C34.3815448,13.5596082 34.9259104,13.2835634 35.3947164,13.087444 C35.4773284,13.0639366 35.5921791,13.010541 35.7382612,12.9269216 C35.9568806,12.8016604 36.0139701,12.6475187 35.9095299,12.4655037" id="Fill-23"></path>
        </g>
    </g>
</svg>