<?xml version="1.0" encoding="UTF-8"?>
<svg width="36px" height="36px" viewBox="0 0 36 36" version="1.1" xmlns="http://www.w3.org/2000/svg" xmlns:xlink="http://www.w3.org/1999/xlink">
    <!-- Generator: Sketch 52.4 (67378) - http://www.bohemiancoding.com/sketch -->
    <title>background-admin</title>
    <desc>Created with Sketch.</desc>
    <g id="Page-1" stroke="none" stroke-width="1" fill="none" fill-rule="evenodd">
        <g id="Desktop-HD" transform="translate(-571.000000, -246.000000)" fill="#D1E3E4">
            <g id="background-admin" transform="translate(571.000000, 246.000000)">
                <path d="M23.5270341,0 C23.3377836,0 23.2217222,0.112069122 23.1800748,0.336207366 C23.1169913,0.718157231 23.0483957,0.953731099 22.9752066,1.0432557 C22.901405,1.13278031 22.7489021,1.17754261 22.517698,1.17754261 C22.3073176,1.17754261 21.981182,1.08801801 21.5399037,0.908315333 C20.2782335,0.392732025 19.2894149,0.134613639 18.5746726,0.134613639 C16.850288,0.134613639 15.425397,0.740375016 14.3006119,1.95189777 C13.1755206,3.16342052 12.6132812,4.70036848 12.6132812,6.56241491 C12.6132812,8.02127389 13.0018879,9.24390554 13.7803261,10.2306366 C13.8823009,10.3603492 13.9965249,10.4907154 14.1196296,10.6214082 C13.3197553,10.9288632 12.4491416,11.3503476 11.5041139,11.8901091 C9.8461814,12.8386125 8.68311752,13.3898096 8.0136974,13.5443539 C6.82215408,13.8276306 5.67685158,13.5548093 4.5777899,12.7262166 C3.63368091,12.0139406 3.06531689,11.1804469 2.87361653,10.2254089 C2.68191616,9.27102431 2.88954052,8.33526347 3.49618337,7.41877984 C4.11538167,6.48432593 5.01263737,5.89751502 6.18886916,5.6573669 C7.36479473,5.41787225 8.52602122,5.57927792 9.67254864,6.14125719 C10.1162768,6.3660489 10.4044398,6.37748453 10.5379564,6.17556407 C10.6592237,5.9929208 10.6197199,5.8393567 10.4185264,5.71454503 L9.9882724,5.43126827 C9.44655045,5.16073406 8.76365617,4.71409123 7.93928336,4.09297344 C7.35591404,3.65253853 6.87574443,3.24935107 6.49999947,2.88373782 C6.44334681,2.81414387 6.34657793,2.72723312 6.20908038,2.6233323 C6.00298718,2.46780781 5.83884757,2.48185729 5.71788648,2.66515402 C5.60856215,2.82982701 5.62785468,2.99613367 5.7751516,3.16146013 C6.0311604,3.43689532 6.17202648,3.63228113 6.19774985,3.74827104 C6.22408568,3.86426095 6.1701891,4.02272604 6.03697878,4.22431976 C5.91571146,4.40794322 5.6590902,4.64024977 5.26650255,4.92091267 C4.14355489,5.72271333 3.37522227,6.43531611 2.96303587,7.05774083 C1.96778637,8.56038191 1.60919032,10.1515674 1.88755395,11.8309706 C2.16561134,13.5107005 3.01754492,14.8875497 4.44304843,15.9621717 C5.55956525,16.8038337 6.71956682,17.1707538 7.92427806,17.0622788 C8.59369818,17.0021601 9.38377317,16.7783486 10.2862348,16.4022799 C10.232032,16.9528235 10.2066148,17.55107 10.2112083,18.1989799 C10.2017151,18.3741083 10.1913033,18.54891 10.1934469,18.7286127 C10.1971217,19.006335 10.2225388,19.2762157 10.259899,19.5415222 C10.2700046,19.700314 10.2776603,19.8558385 10.2902158,20.0195313 C10.4454747,22.0197854 10.4561928,23.3776842 10.3229825,24.0945345 C10.0914721,25.3736908 9.40122832,26.3855802 8.25071989,27.1315097 C7.26281993,27.7722314 6.31993587,27.9966964 5.42268017,27.8035977 C4.52542446,27.6114792 3.8036389,27.0354504 3.25732349,26.0768184 C2.70029,25.0989091 2.5532993,23.9870396 2.81512648,22.7402298 C3.07725989,21.4940734 3.67839058,20.4220653 4.61821234,19.5232252 C4.98813892,19.1785228 5.11277478,18.9011272 4.99242615,18.6900583 C4.88340805,18.4985932 4.7358049,18.475722 4.54869799,18.6230782 L4.13344928,18.9315133 C3.68543389,19.353978 3.02948791,19.8447296 2.1671425,20.404095 C1.55621242,20.7997677 1.01847146,21.109183 0.554532079,21.3313608 C0.472156043,21.3588063 0.358544485,21.4192518 0.214616096,21.5123704 C-0.00127648736,21.6522118 -0.0539481531,21.8185185 0.0550699458,22.0099835 C0.153063743,22.1821713 0.303422975,22.2295475 0.504616489,22.1514585 C0.843307549,22.0103102 1.06746836,21.950845 1.17709892,21.9711024 C1.28764817,21.9920132 1.40248465,22.1073497 1.52283328,22.3184186 C1.63185138,22.5098836 1.72953895,22.8539326 1.81467106,23.3495852 C2.05689948,24.7679294 2.36343632,25.8033436 2.73489406,26.4551742 C3.63061861,28.0274092 4.85554107,29.0118531 6.4102739,29.4081792 C7.96500673,29.804832 9.48789158,29.5192681 10.9795409,28.552141 C12.1478107,27.7944492 12.925024,26.8051043 13.311487,25.5827994 C13.4333668,25.1979089 13.5227862,24.7493057 13.5874008,24.2507125 C13.6532404,24.2961282 13.7154052,24.3421975 13.7833884,24.3876132 C14.0103053,24.5836525 14.247634,24.7711967 14.5079301,24.940444 C14.8980679,25.1936614 15.3016798,25.3857799 15.7172347,25.5233341 C15.7555136,25.5432648 15.7907301,25.5635222 15.8293152,25.5834528 C17.5227705,26.4571346 18.624282,27.1373909 19.1350746,27.623895 C20.0500917,28.4864678 20.5161747,29.635258 20.5339361,31.0715725 C20.5486352,32.3049863 20.2506728,33.2851827 19.6391302,34.0121617 C19.0278939,34.7384872 18.1964778,35.1093282 17.1445756,35.1240311 C16.072156,35.1387341 15.0998738,34.7090813 14.2268103,33.8350729 C13.3540531,32.9607377 12.7939573,31.8635712 12.5462167,30.5432466 C12.4561849,30.0279901 12.2954139,29.7724855 12.0635973,29.7757528 C11.8535231,29.7786934 11.760429,29.9028516 11.784315,30.1495344 L11.8222876,30.687989 C11.9352867,31.3140077 11.9983702,32.1664519 12.0115381,33.2430343 C12.0204188,34.0056271 11.9971452,34.6571309 11.9407988,35.196239 C11.9212,35.2860903 11.9117069,35.4207039 11.9138505,35.6004066 C11.917219,35.8647329 12.0204188,35.9980396 12.2231434,36 L12.234474,36 C12.4234183,35.9973861 12.5382547,35.8833566 12.577146,35.6585649 C12.6353298,35.2759616 12.7011694,35.0397343 12.7734398,34.9489027 C12.8463227,34.8580712 12.9982131,34.8113485 13.229111,34.8080812 C13.4397977,34.8051406 13.7665457,34.8900909 14.2102739,35.0635857 C15.4780686,35.5618522 16.4699496,35.8065746 17.1843856,35.7964459 C18.9087702,35.7722677 20.3263117,35.1469024 21.4357853,33.9196965 C22.5461775,32.6928173 23.0897368,31.1480278 23.0670757,29.2859814 C23.0493144,27.8274491 22.6453962,26.6103719 21.8553212,25.6340963 C21.6048246,25.3243543 21.2860385,25.0123251 20.9130496,24.697682 C21.549703,24.3686628 22.2264727,23.9654753 22.9448897,23.4851791 C24.5379014,22.4180719 25.6629927,21.7835581 26.320776,21.580004 C27.4918019,21.2104699 28.6514972,21.3993211 29.8013932,22.145904 C30.7892932,22.7872792 31.4094102,23.5773175 31.6617442,24.5163457 C31.9140782,25.4547204 31.7670875,26.4032238 31.2201596,27.3621826 C30.6628199,28.3391117 29.805068,28.9902888 28.64721,29.315714 C27.4893521,29.6404857 26.3204698,29.5643572 25.140257,29.0870015 C24.6833609,28.894883 24.3951979,28.904685 24.2745431,29.1157539 C24.165525,29.307219 24.2148281,29.4575157 24.4233711,29.5672977 L24.8710803,29.818228 C25.4287262,30.0485742 26.1385688,30.4442468 27.0009142,31.0042657 C27.6112318,31.4005917 28.1162061,31.7678387 28.5146121,32.105353 C28.5752458,32.1706994 28.6775268,32.250422 28.8214552,32.3438674 C29.0367353,32.4840355 29.1993438,32.4582237 29.3086681,32.2667586 C29.4069682,32.0939173 29.3772638,31.9298978 29.219555,31.7753535 C28.9467035,31.5195222 28.7938945,31.3345919 28.7605153,31.2208891 C28.72683,31.1068596 28.7700085,30.9448004 28.8903571,30.7343849 C28.9999877,30.5422664 29.2406849,30.2919896 29.6142863,29.982901 C30.6833374,29.1013777 31.4042042,28.3345374 31.775662,27.6830335 C32.671999,26.111452 32.9280078,24.497722 32.5424634,22.842497 C32.1575315,21.187272 31.2195472,19.8754424 29.7285103,18.9076619 C28.5605467,18.1489899 27.3797215,17.8680002 26.1848096,18.0640395 C26.0065834,18.0934454 25.8179454,18.1382077 25.6244076,18.191465 C25.7193391,17.2328329 25.7361818,16.1376268 25.670036,14.8970249 C25.562549,12.8938302 25.5842914,11.5356047 25.7346506,10.8230019 C25.9964778,9.55070701 26.7106076,8.55744132 27.8785712,7.84320488 C28.8814764,7.22960193 29.8292602,7.03094879 30.7219224,7.24789893 C31.6139722,7.46484907 32.3219774,8.05982828 32.8450193,9.03316331 C33.378473,10.0257755 33.4991279,11.1415658 33.2075963,12.380534 C32.9157585,13.6195023 32.2892107,14.6748471 31.328259,15.5475486 C30.9500642,15.8817956 30.8193038,16.1562506 30.9344465,16.3705868 C31.0388711,16.5649925 31.186168,16.5914578 31.3763372,16.4493293 L31.7986293,16.1523298 C32.2567503,15.742281 32.924333,15.2694996 33.7998463,14.7339856 C34.4196571,14.3546496 34.9647476,14.0599372 35.4338929,13.8501752 C35.5168814,13.8253435 35.6320241,13.7681654 35.7777899,13.6789675 C35.997051,13.5446806 36.0537037,13.3803344 35.949279,13.1859287 C35.8552662,13.0108003 35.7064381,12.9595034 35.503101,13.0323646 C35.1613476,13.163711 34.9359619,13.2176218 34.8266376,13.194097 C34.7167008,13.1705723 34.6046204,13.0516418 34.4897839,12.8376323 C34.385053,12.6428999 34.2956337,12.2968906 34.2221384,11.7986241 C34.0142078,10.3743987 33.7321694,9.33048955 33.3766356,8.66918371 C32.5185774,7.07309724 31.3172347,6.05532664 29.7726075,5.61717885 C28.2279803,5.17837759 26.6986646,5.4224465 25.1843542,6.3487321 C23.9986293,7.0747309 23.1978362,8.04251148 22.7825875,9.25403423 C22.5412778,9.95618159 22.3961245,10.8595959 22.3406967,11.9521882 C21.633304,11.4189614 20.7881075,10.8903088 19.8051072,10.3652502 C18.1226762,9.46837051 17.0291267,8.7727578 16.5244587,8.27873881 C15.6201596,7.40375016 15.1681633,6.24875206 15.1681633,4.8124376 C15.1681633,3.57869706 15.4783749,2.60274818 16.0987981,1.88459095 C16.7189151,1.16676045 17.5546184,0.807355103 18.6065206,0.807355103 C19.6789402,0.807355103 20.6457103,1.25073061 21.5083619,2.13682816 C22.3700949,3.02325244 22.9170227,4.12826051 23.1485331,5.45152566 C23.2324403,5.96808916 23.3898428,6.22588082 23.6216594,6.22588082 C23.8317336,6.22588082 23.9263588,6.1027028 23.9055352,5.85569331 L23.8739934,5.31723875 C23.7686501,4.68925959 23.7162846,3.83648872 23.7162846,2.7595796 C23.7162846,1.9969868 23.7478264,1.34613639 23.8112161,0.807355103 C23.8317336,0.718157231 23.8424517,0.583543592 23.8424517,0.403514186 C23.8424517,0.134613639 23.7368021,0 23.5270341,0 Z M14.0813508,17.9996733 C14.0813508,15.6906573 15.835746,13.8184821 18.000184,13.8184821 C20.164622,13.8184821 21.9190172,15.6906573 21.9190172,17.9996733 C21.9190172,20.309016 20.164622,22.1811911 18.000184,22.1811911 C15.835746,22.1811911 14.0813508,20.309016 14.0813508,17.9996733 Z" id="Fill-1"></path>
            </g>
        </g>
    </g>
</svg>