<?xml version="1.0" encoding="UTF-8"?>
<svg width="14px" height="14px" viewBox="0 0 14 14" version="1.1" xmlns="http://www.w3.org/2000/svg" xmlns:xlink="http://www.w3.org/1999/xlink">
    <!-- Generator: Sketch 52.4 (67378) - http://www.bohemiancoding.com/sketch -->
    <title>icon-toggler-tall@1x</title>
    <desc>Created with Sketch.</desc>
    <g id="icon-toggler-tall" stroke="none" stroke-width="1" fill="none" fill-rule="evenodd">
        <g id="Group-3" transform="translate(0.200000, 1.200000)" fill="#B2CECE">
            <path d="M6.63877873,7.66762652 C5.84049645,7.66762652 5.19336455,7.02049462 5.19336455,6.22221234 C5.19336455,5.42405405 5.84049645,4.77692215 6.63877873,4.77692215 C7.43706101,4.77692215 8.08419292,5.42405405 8.08419292,6.22221234 C8.08419292,7.02049462 7.43706101,7.66762652 6.63877873,7.66762652 M13.2588923,4.55819429 C13.2241735,4.49768454 13.1691196,4.4799532 13.0943504,4.50512427 C12.9682471,4.55050658 12.8850462,4.56910588 12.8447477,4.56092219 C12.8042012,4.55273849 12.7629107,4.51169602 12.7205043,4.43779477 C12.6818177,4.37046528 12.648959,4.25080974 12.621804,4.07858015 C12.5450508,3.58631848 12.4410187,3.22549191 12.3099556,2.99684442 C11.9935194,2.44518896 11.5504839,2.09341406 10.9807251,1.9418917 C10.4109663,1.79024535 9.84691129,1.87456221 9.28856008,2.19484228 C8.85110436,2.44568494 8.55587136,2.78022449 8.40261306,3.1989569 C8.31370837,3.44161586 8.26014237,3.75396023 8.23968313,4.13165017 C7.97879684,3.94739303 7.66707245,3.76462384 7.30450995,3.58321859 C6.68391305,3.27310614 6.28068007,3.03267909 6.09456299,2.86193745 C5.76101541,2.55938871 5.59436562,2.16012357 5.59436562,1.66364606 C5.59436562,1.23722594 5.70868936,0.899834498 5.93746084,0.65159574 C6.16623233,0.403356982 6.47448485,0.279237604 6.8624664,0.279237604 C7.25788768,0.279237604 7.6146224,0.432495897 7.93267056,0.738764495 C8.25059472,1.04528108 8.45221122,1.42718686 8.53764403,1.88472983 C8.56851888,2.06315919 8.62667272,2.15231187 8.71210554,2.15231187 C8.78960265,2.15231187 8.82444536,2.10978145 8.81688164,2.02434863 L8.80522607,1.83810756 C8.76629152,1.62111564 8.74707224,1.32625462 8.74707224,0.95402048 C8.74707224,0.690406295 8.7587278,0.465354674 8.78191494,0.279237604 C8.78960265,0.248362753 8.79357051,0.201864484 8.79357051,0.139618802 C8.79357051,0.0466222642 8.75463596,0 8.67726284,0 C8.60745344,0 8.56467503,0.0389345504 8.5492996,0.116431665 C8.52598847,0.248362753 8.50081741,0.329703725 8.47366242,0.36070257 C8.44638343,0.391701416 8.39021352,0.407200839 8.3050287,0.407200839 C8.22740759,0.407200839 8.10713206,0.376325989 7.94432612,0.314080306 C7.47897145,0.13589894 7.11430103,0.0466222642 6.85081084,0.0466222642 C6.21471452,0.0466222642 5.68922209,0.255926471 5.27445753,0.674782877 C4.85944498,1.09363928 4.6520007,1.6249595 4.6520007,2.26861954 C4.6520007,2.77290876 4.79546336,3.19548503 5.08238868,3.53672032 C5.12008328,3.58148266 5.16211771,3.62649298 5.20762402,3.67175129 C4.912639,3.77801534 4.59149096,3.92358592 4.24293993,4.11032297 C3.6315187,4.43816676 3.20249467,4.62862367 2.95574386,4.68218967 C2.51618022,4.78002203 2.09385195,4.68566154 1.68838704,4.39923221 C1.34008401,4.15310137 1.13053181,3.8649361 1.05985445,3.53486039 C0.989177077,3.20490868 1.06568223,2.88140472 1.2894939,2.56459652 C1.5177694,2.24158854 1.84883707,2.03873209 2.28244893,1.95577918 C2.71630877,1.87295027 3.14446483,1.92874819 3.56741308,2.12292496 C3.73108699,2.20079406 3.83735103,2.20463792 3.8867012,2.13495251 C3.93133953,2.07171487 3.91683208,2.01864484 3.84255884,1.97549445 L3.68384475,1.87766209 C3.48421218,1.78416957 3.23225356,1.62967132 2.92821688,1.41491132 C2.7129609,1.26276898 2.53589549,1.12339817 2.39726865,0.997046878 C2.37643743,0.972867778 2.34085075,0.942860896 2.29001264,0.906902234 C2.21400347,0.853212233 2.15361772,0.858172049 2.10885539,0.921409694 C2.06855689,0.978323575 2.07574862,1.03573344 2.1300586,1.09301931 C2.22441909,1.18812376 2.27624916,1.25582524 2.2859208,1.29575176 C2.29559244,1.33592626 2.27575318,1.39073222 2.22652701,1.46041763 C2.18176467,1.52377927 2.0871562,1.60412828 1.94245358,1.70121666 C1.528309,1.97834634 1.24497955,2.22460117 1.09283722,2.43985716 C0.725810882,2.95927382 0.593507808,3.50931734 0.696175986,4.08973973 C0.798720168,4.67041011 1.11292447,5.14642839 1.6386649,5.51791856 C2.05045356,5.80881173 2.47836163,5.93565901 2.92263709,5.8980884 C3.1695119,5.87738118 3.46090105,5.80000806 3.79370466,5.6699369 C3.7737414,5.86039381 3.76431775,6.06709411 3.76617768,6.29115377 C3.76245782,6.35153952 3.75886196,6.41204927 3.75960593,6.47404696 C3.76084588,6.57014338 3.77026953,6.66338791 3.78415701,6.75514449 C3.78775288,6.81007445 3.79060477,6.86388845 3.7951926,6.92043034 C3.85260247,7.6118286 3.85644632,8.08127512 3.80722016,8.3290179 C3.72203533,8.77118543 3.46734881,9.12097641 3.0431606,9.37888681 C2.67873817,9.60034256 2.33093112,9.67783968 1.99998744,9.61125416 C1.66916776,9.54466864 1.40294967,9.34578004 1.20145717,9.01421639 C0.995996823,8.67620497 0.941686845,8.29181928 1.03827925,7.86093532 C1.13499565,7.43005137 1.35669939,7.05942917 1.70326649,6.74882073 C1.83978541,6.62978516 1.8856637,6.53381274 1.84139735,6.46077945 C1.80109885,6.39456592 1.74666487,6.38687821 1.67759945,6.43771631 L1.52458914,6.54435234 C1.3593033,6.69029491 1.1173883,6.85992059 0.799216149,7.0532294 C0.574040533,7.1901203 0.375647919,7.29712832 0.20453429,7.37388146 C0.174155421,7.3834291 0.132244982,7.40413633 0.0791749576,7.43649913 C-0.000430078551,7.48473333 -0.0198973538,7.54214319 0.0202771505,7.60835673 C0.0564838024,7.66799851 0.111909739,7.6843659 0.186182974,7.6573349 C0.311046325,7.60860472 0.393751245,7.58789749 0.43417374,7.59508922 C0.474844226,7.60215696 0.517250647,7.64220747 0.561516999,7.71499276 C0.601939494,7.78133029 0.637898155,7.90011787 0.669392983,8.07160348 C0.758669659,8.56175723 0.871753449,8.9197319 1.00864435,9.14503151 C1.33896805,9.68850328 1.79093123,10.0288706 2.36416188,10.1657615 C2.93764053,10.3029004 3.49946361,10.2042001 4.04950714,9.86990853 C4.48039109,9.60803028 4.76706842,9.26605101 4.90953911,8.84347474 C4.95454944,8.7104277 4.98753221,8.55543347 5.01133932,8.38295589 C5.03551842,8.3987033 5.05858157,8.41457471 5.08362863,8.43032212 C5.16732552,8.4981476 5.25486626,8.56299719 5.35083868,8.62139901 C5.49467333,8.70893975 5.64359178,8.77540128 5.79685008,8.82289151 C5.81098555,8.82983525 5.82388107,8.83677899 5.83814054,8.84372273 C6.46270529,9.14565149 6.86903816,9.38087073 7.05738715,9.54913247 C7.39490258,9.84721737 7.56676018,10.2443746 7.57320794,10.7408521 C7.57878773,11.1672722 7.46880383,11.5060276 7.24325623,11.7573663 C7.01783262,12.0084569 6.71119204,12.1365441 6.32333448,12.1416279 C5.9277892,12.1468358 5.56919455,11.9981653 5.24705455,11.6961125 C4.92528653,11.3938118 4.71871022,11.0145099 4.62732562,10.5582069 C4.59409486,10.3801495 4.53470107,10.2917408 4.44926825,10.2928568 C4.37189513,10.2938487 4.33754841,10.3368751 4.34622809,10.422184 L4.36036356,10.608177 C4.40202601,10.824673 4.42521315,11.119286 4.43004897,11.4915202 C4.43352084,11.7550103 4.42471717,11.980186 4.40388594,12.166675 C4.39669421,12.1976739 4.39334633,12.2441721 4.39409031,12.3064178 C4.39533026,12.3994143 4.43488479,12.4455406 4.51225791,12.4444247 C4.58206731,12.4435567 4.62422574,12.4041262 4.6387332,12.3265051 C4.6601844,12.194202 4.68448749,12.112489 4.7111465,12.0812422 C4.7379295,12.0497474 4.79397542,12.033628 4.87916025,12.032512 C4.95678136,12.03152 5.07742886,12.060783 5.24097877,12.1207967 C5.70868936,12.2930263 6.07447574,12.3775912 6.33796593,12.3741193 C6.97393825,12.3658116 7.49670279,12.1495637 7.90601155,11.7253754 C8.3155683,11.3011872 8.51594484,10.7672631 8.50763715,10.1236031 C8.5009414,9.61943785 8.35214694,9.19872152 8.06063379,8.86133008 C7.96825723,8.75419807 7.85070961,8.64632208 7.71307473,8.53757813 C7.94804599,8.42387436 8.19764869,8.28450355 8.46250283,8.11834974 C9.04999296,7.74946347 9.46500551,7.53011564 9.70766447,7.45981026 C10.1395404,7.33209501 10.5673245,7.39744058 10.9913887,7.65547497 C11.3555631,7.87717872 11.5843346,8.15034055 11.6774551,8.47483647 C11.7705757,8.79920839 11.7163897,9.12717618 11.5146492,9.45849184 C11.3090648,9.79637926 10.9927526,10.0213069 10.5657125,10.1338947 C10.1385484,10.2461105 9.70754048,10.2196995 9.27231668,10.0549096 C9.10380696,9.98844811 8.99741892,9.99179599 8.95302857,10.0648293 C8.91273007,10.1309188 8.93095739,10.1828729 9.00783453,10.2208155 L9.17287238,10.3076122 C9.37858072,10.3872173 9.64045897,10.5239842 9.95838314,10.717541 C10.1835588,10.8545559 10.3697998,10.9815271 10.5167343,11.0982068 C10.5390535,11.120774 10.5767481,11.1484249 10.6298181,11.1806637 C10.7094232,11.2291459 10.7693129,11.2200943 10.8096114,11.1538807 C10.8459421,11.0943629 10.8349065,11.0375731 10.7767527,10.984131 C10.6760684,10.8955983 10.6197745,10.8317407 10.607375,10.7925582 C10.5949754,10.7531276 10.6109708,10.6970817 10.6553612,10.6241724 C10.6956597,10.5579589 10.7845644,10.4712861 10.9223232,10.3645261 C11.3166286,10.0597455 11.5824747,9.79464333 11.7194896,9.56946771 C12.0500613,9.02624394 12.1445457,8.46838871 12.002323,7.89627401 C11.8603483,7.32403531 11.5142772,6.87070819 10.9644817,6.53604465 C10.5337217,6.27391841 10.0981259,6.17658204 9.65744634,6.24440751 C9.59172879,6.25457513 9.52216738,6.27007455 9.45074604,6.28854987 C9.48583673,5.95711021 9.4920365,5.57842831 9.46760941,5.14977627 C9.42793089,4.45713805 9.43599059,3.98781553 9.49141652,3.7414367 C9.58788493,3.30150108 9.85149912,2.95828186 10.2821351,2.71128305 C10.6520133,2.49925095 11.0015563,2.43055751 11.330764,2.50557471 C11.6598478,2.58046792 11.9208581,2.78617627 12.1139189,3.12269974 C12.3106996,3.46579496 12.3550899,3.85142061 12.2477099,4.27982465 C12.1399579,4.70798071 11.9089545,5.07289913 11.5545757,5.3745799 C11.4150809,5.49014359 11.3667227,5.58500006 11.4091291,5.6590253 C11.4476917,5.7262308 11.5020017,5.73540646 11.572307,5.68630429 L11.7280453,5.58351212 C11.896927,5.44190939 12.1430578,5.27848347 12.4660658,5.09323437 C12.6947133,4.96217125 12.8957098,4.86024704 13.0688073,4.78783374 C13.0993102,4.77915406 13.1417166,4.7594388 13.1956546,4.72856395 C13.2763756,4.68231367 13.2974548,4.62539979 13.2588923,4.55819429" id="Fill-1"></path>
        </g>
    </g>
</svg>