<?xml version="1.0" encoding="UTF-8"?>
<svg width="120px" height="31px" viewBox="0 0 120 31" version="1.1" xmlns="http://www.w3.org/2000/svg" xmlns:xlink="http://www.w3.org/1999/xlink">
    <!-- Generator: Sketch 52.4 (67378) - http://www.bohemiancoding.com/sketch -->
    <title>Group 28</title>
    <desc>Created with Sketch.</desc>
    <defs>
        <polygon id="path-1" points="0.2115 0.932 17.7195 0.932 17.7195 30.9876 0.2115 30.9876"></polygon>
        <polygon id="path-3" points="0.4514 0.8117 16 0.8117 16 19.9877 0.4514 19.9877"></polygon>
        <polygon id="path-5" points="0.000102088724 0.0393 31.9666934 0.0393 31.9666934 30 0.000102088724 30"></polygon>
    </defs>
    <g id="Page-1" stroke="none" stroke-width="1" fill="none" fill-rule="evenodd">
        <g id="Group-28" transform="translate(0.000000, -1.000000)">
            <g id="Group-3" transform="translate(35.000000, 0.068000)">
                <mask id="mask-2" fill="white">
                    <use xlink:href="#path-1"></use>
                </mask>
                <g id="Clip-2"></g>
                <path d="M17.7195,22.3586 C17.7195,24.7496 16.8095,26.7846 14.9895,28.4656 C13.1685,30.1476 10.9805,30.9876 8.4235,30.9876 C6.9235,30.9876 5.1305,30.5286 3.0465,29.6116 C2.4905,29.3616 2.0735,29.2366 1.7955,29.2366 C1.4625,29.2366 1.2535,29.6216 1.1705,30.3906 C1.1425,30.7886 0.9615,30.9876 0.6285,30.9876 C0.3505,30.9876 0.2115,30.8206 0.2115,30.4876 C0.2115,30.2656 0.2255,30.0986 0.2535,29.9876 C0.4755,28.2926 0.5865,26.7216 0.5865,25.2766 C0.5865,24.9996 0.5585,24.2206 0.5035,22.9426 C0.4755,22.7756 0.4615,22.5536 0.4615,22.2756 C0.4615,21.8586 0.6285,21.6496 0.9615,21.6496 C1.2395,21.6496 1.4345,21.9866 1.5455,22.6596 C2.2675,27.6556 4.6155,30.1536 8.5905,30.1536 C10.2855,30.1536 11.5985,29.6746 12.5295,28.7156 C13.4605,27.7566 13.9265,26.4026 13.9265,24.6516 C13.9265,23.0956 13.4745,21.7686 12.5715,20.6706 C11.6685,19.5726 10.1185,18.4816 7.9235,17.3976 C5.2825,16.0916 3.4485,14.8276 2.4205,13.6046 C1.3925,12.3816 0.8785,10.8676 0.8785,9.0606 C0.8785,6.7546 1.6215,4.8506 3.1085,3.3496 C4.5955,1.8486 6.4785,1.0986 8.7575,1.0986 C9.7015,1.0986 11.0085,1.4186 12.6755,2.0576 C13.2595,2.2806 13.6895,2.3906 13.9675,2.3906 C14.2735,2.3906 14.4745,2.3356 14.5725,2.2246 C14.6695,2.1136 14.7605,1.8216 14.8435,1.3486 C14.8985,1.0716 15.0515,0.9316 15.3015,0.9316 C15.5795,0.9316 15.7185,1.0986 15.7185,1.4326 C15.7185,1.6546 15.7045,1.8216 15.6775,1.9326 C15.5935,2.5996 15.5515,3.4056 15.5515,4.3506 C15.5515,5.6846 15.6215,6.7406 15.7605,7.5186 L15.8025,8.1856 C15.8295,8.4916 15.7045,8.6436 15.4265,8.6436 C15.1205,8.6436 14.9125,8.3246 14.8015,7.6846 C14.4955,6.0456 13.7735,4.6776 12.6345,3.5786 C11.4945,2.4816 10.2165,1.9326 8.7985,1.9326 C7.4085,1.9326 6.3045,2.3776 5.4845,3.2666 C4.6645,4.1566 4.2555,5.3646 4.2555,6.8936 C4.2555,8.6716 4.8525,10.1026 6.0475,11.1866 C6.7145,11.7986 8.1595,12.6596 10.3825,13.7716 C12.9945,15.0776 14.8705,16.4046 16.0105,17.7526 C17.1495,19.1006 17.7195,20.6356 17.7195,22.3586" id="Fill-1" fill="#FFFFFF" mask="url(#mask-2)"></path>
            </g>
            <path d="M66.1005,17.5077 C65.9895,14.1727 64.7935,12.5057 62.5155,12.5057 C60.2645,12.5057 58.8605,14.1727 58.3055,17.5077 L66.1005,17.5077 Z M69.7275,26.0117 C69.7275,26.2897 69.5115,26.7827 69.0805,27.4917 C68.6495,28.1997 68.2125,28.7777 67.7675,29.2217 C66.5725,30.4447 64.9745,31.0557 62.9735,31.0557 C60.4725,31.0557 58.3815,30.1527 56.7005,28.3457 C55.0185,26.5397 54.1785,24.3027 54.1785,21.6347 C54.1785,18.8557 54.9765,16.5347 56.5755,14.6727 C58.1725,12.8117 60.1665,11.8797 62.5575,11.8797 C64.5305,11.8797 66.1835,12.4567 67.5175,13.6097 C68.8515,14.7637 69.5605,16.2437 69.6435,18.0497 C68.7545,18.1887 67.5735,18.2447 66.1005,18.2167 L63.1825,18.2167 C62.9875,18.2167 61.3205,18.2577 58.1805,18.3407 C58.0405,19.2557 57.9715,20.1277 57.9715,20.9577 C57.9715,23.7547 58.5065,25.9077 59.5765,27.4167 C60.6455,28.9257 62.1545,29.6797 64.0995,29.6797 C65.2105,29.6797 66.1005,29.4297 66.7675,28.9297 C67.4345,28.4297 68.1565,27.4707 68.9355,26.0537 C69.0455,25.8307 69.1985,25.7197 69.3935,25.7197 C69.6155,25.7197 69.7275,25.8177 69.7275,26.0117 Z" id="Fill-4" fill="#FFFFFF"></path>
            <path d="M89.9859,30.3274 C89.9859,30.5354 89.7779,30.6384 89.3609,30.6384 L88.8599,30.6384 L86.8179,30.6384 L81.9819,30.6384 L81.6899,30.6384 C81.3289,30.6384 81.1489,30.5414 81.1489,30.3474 C81.1489,30.2094 81.2249,30.1264 81.3779,30.0984 C81.5299,30.0704 82.0659,30.0424 82.9829,30.0144 C83.5099,29.9874 83.8159,29.9114 83.8999,29.7864 C83.9829,29.6614 84.0249,29.2114 84.0249,28.4344 L84.0249,20.4494 C84.0249,17.4284 83.9129,15.6254 83.6919,15.0434 C83.2179,13.7964 82.2739,13.1724 80.8569,13.1724 C79.4669,13.1724 78.2999,13.7824 77.3549,15.0014 C77.0769,15.3624 76.9379,15.8614 76.9379,16.4994 L76.9379,29.4744 C76.9379,29.8074 77.2349,29.9874 77.8279,30.0144 L79.0989,30.0564 C79.3819,30.0564 79.5229,30.1534 79.5229,30.3474 C79.5229,30.5414 79.3559,30.6384 79.0229,30.6384 L78.3559,30.6384 L75.4379,30.6384 L73.4579,30.6384 L71.6859,30.6384 L71.4359,30.6384 C71.0189,30.6384 70.8109,30.5544 70.8109,30.3834 C70.8109,30.2134 71.0609,30.1044 71.5609,30.0554 L72.6029,30.0554 C73.0199,30.0554 73.2699,29.9584 73.3529,29.7634 L73.4779,29.1404 L73.4779,20.0774 C73.4779,16.9174 73.4499,15.1714 73.3949,14.8384 C73.3389,14.5064 72.9919,14.3394 72.3529,14.3394 L71.3519,14.3394 L71.1439,14.3394 C70.5879,14.3394 70.3099,14.2364 70.3099,14.0294 C70.3099,13.7634 70.6019,13.6304 71.1859,13.6304 C72.0189,13.6034 72.9219,13.4504 73.8949,13.1724 C74.8679,12.8944 75.5479,12.5754 75.9379,12.2134 C76.1879,11.9914 76.3819,11.8804 76.5209,11.8804 C76.7149,11.8804 76.8129,12.1444 76.8129,12.6724 L76.8129,14.6734 C78.2579,12.8114 80.1199,11.8804 82.3989,11.8804 C84.3999,11.8804 85.8449,12.6164 86.7349,14.0894 C87.2349,14.9234 87.4849,16.5074 87.4849,18.8414 L87.4849,28.3464 C87.4849,29.2354 87.5269,29.7214 87.6099,29.8054 C87.7759,29.9714 88.1789,30.0554 88.8189,30.0554 L89.2769,30.0554 L89.5689,30.0554 C89.8469,30.0554 89.9859,30.1464 89.9859,30.3274" id="Fill-6" fill="#FFFFFF"></path>
            <path d="M103.1168,25.2483 C103.1168,26.8633 102.5298,28.2353 101.3578,29.3633 C100.1848,30.4913 98.7848,31.0553 97.1558,31.0553 C96.2168,31.0553 95.0718,30.7223 93.7198,30.0553 C93.3608,29.8613 93.0428,29.7633 92.7678,29.7633 C92.3808,29.7633 92.0908,30.0273 91.8978,30.5553 C91.7878,30.8893 91.6358,31.0553 91.4428,31.0553 C91.2498,31.0553 91.1528,30.9443 91.1528,30.7223 L91.1528,30.2223 L91.1528,27.7623 L91.1528,26.7623 L91.1528,25.5943 L91.1528,25.1363 C91.1528,24.8313 91.2498,24.6773 91.4448,24.6773 C91.6668,24.6773 91.7918,24.8323 91.8198,25.1393 C91.9868,26.4283 92.3478,27.4353 92.9038,28.1633 C94.0148,29.6193 95.5018,30.3473 97.3638,30.3473 C98.3648,30.3473 99.1708,30.0543 99.7818,29.4693 C100.3928,28.8843 100.6988,28.1053 100.6988,27.1303 C100.6988,26.0433 100.3518,25.1803 99.6568,24.5393 C99.2678,24.1773 98.9128,23.9203 98.5938,23.7663 C98.2738,23.6133 97.3368,23.2443 95.7798,22.6593 C92.6958,21.4893 91.1528,19.7343 91.1528,17.3953 C91.1528,15.8353 91.6768,14.5263 92.7238,13.4683 C93.7718,12.4093 95.0678,11.8803 96.6118,11.8803 C97.1628,11.8803 97.9898,12.0463 99.0928,12.3803 C99.3688,12.4633 99.6168,12.5053 99.8378,12.5053 C100.4168,12.5053 100.7748,12.2273 100.9128,11.6713 C100.9958,11.3943 101.1198,11.2543 101.2858,11.2543 C101.4778,11.2543 101.5748,11.3663 101.5748,11.5883 L101.5748,11.8383 L101.5748,13.5893 C101.5468,14.2563 101.6158,15.3263 101.7828,16.7993 L101.7828,16.8823 C101.7828,17.1053 101.6718,17.2163 101.4498,17.2163 C101.2828,17.2163 101.0748,16.7953 100.8238,15.9543 C100.5178,14.9443 99.9838,14.1313 99.2198,13.5143 C98.4548,12.8973 97.5728,12.5883 96.5718,12.5883 C95.6268,12.5883 94.8488,12.8813 94.2378,13.4663 C93.6258,14.0513 93.3208,14.7893 93.3208,15.6803 C93.3208,17.0733 94.2518,18.1313 96.1138,18.8563 C99.0038,19.9983 100.8378,20.9453 101.6158,21.6973 C102.6168,22.6723 103.1168,23.8553 103.1168,25.2483" id="Fill-8" fill="#FFFFFF"></path>
            <g id="Group-12" transform="translate(104.000000, 11.068000)">
                <mask id="mask-4" fill="white">
                    <use xlink:href="#path-3"></use>
                </mask>
                <g id="Clip-11"></g>
                <path d="M12.3734,6.4397 C12.2624,3.1047 11.0664,1.4377 8.7884,1.4377 C6.5374,1.4377 5.1334,3.1047 4.5784,6.4397 L12.3734,6.4397 Z M16.0004,14.9437 C16.0004,15.2217 15.7844,15.7147 15.3534,16.4237 C14.9224,17.1317 14.4854,17.7097 14.0404,18.1537 C12.8454,19.3767 11.2474,19.9877 9.2464,19.9877 C6.7454,19.9877 4.6544,19.0847 2.9734,17.2777 C1.2914,15.4717 0.4514,13.2347 0.4514,10.5667 C0.4514,7.7877 1.2494,5.4667 2.8484,3.6047 C4.4454,1.7437 6.4394,0.8117 8.8304,0.8117 C10.8034,0.8117 12.4564,1.3887 13.7904,2.5417 C15.1244,3.6957 15.8334,5.1757 15.9164,6.9817 C15.0274,7.1207 13.8464,7.1767 12.3734,7.1487 L9.4554,7.1487 C9.2604,7.1487 7.5934,7.1897 4.4534,7.2727 C4.3134,8.1877 4.2444,9.0597 4.2444,9.8897 C4.2444,12.6867 4.7794,14.8397 5.8494,16.3487 C6.9184,17.8577 8.4274,18.6117 10.3724,18.6117 C11.4834,18.6117 12.3734,18.3617 13.0404,17.8617 C13.7074,17.3617 14.4294,16.4027 15.2084,14.9857 C15.3184,14.7627 15.4714,14.6517 15.6664,14.6517 C15.8884,14.6517 16.0004,14.7497 16.0004,14.9437 Z" id="Fill-10" fill="#FFFFFF" mask="url(#mask-4)"></path>
            </g>
            <path d="M1.9772,16.6151 C1.9772,16.9931 1.6712,17.3001 1.2922,17.3001 C0.9142,17.3001 0.6082,16.9931 0.6082,16.6151 C0.6082,16.2371 0.9142,15.9301 1.2922,15.9301 C1.6712,15.9301 1.9772,16.2371 1.9772,16.6151" id="Fill-13" fill="#FFFFFF"></path>
            <path d="M8.8973,3.2613 C8.8973,3.6393 8.5913,3.9463 8.2123,3.9463 C7.8343,3.9463 7.5283,3.6393 7.5283,3.2613 C7.5283,2.8833 7.8343,2.5763 8.2123,2.5763 C8.5913,2.5763 8.8973,2.8833 8.8973,3.2613" id="Fill-15" fill="#FFFFFF"></path>
            <path d="M23.2475,3.5202 C23.2475,3.8982 22.9415,4.2052 22.5625,4.2052 C22.1845,4.2052 21.8785,3.8982 21.8785,3.5202 C21.8785,3.1422 22.1845,2.8352 22.5625,2.8352 C22.9415,2.8352 23.2475,3.1422 23.2475,3.5202" id="Fill-17" fill="#FFFFFF"></path>
            <path d="M31.5281,14.509 C31.5281,14.887 31.2221,15.194 30.8431,15.194 C30.4651,15.194 30.1591,14.887 30.1591,14.509 C30.1591,14.131 30.4651,13.824 30.8431,13.824 C31.2221,13.824 31.5281,14.131 31.5281,14.509" id="Fill-19" fill="#FFFFFF"></path>
            <path d="M23.4395,28.1588 C23.4395,28.5368 23.1335,28.8438 22.7545,28.8438 C22.3765,28.8438 22.0705,28.5368 22.0705,28.1588 C22.0705,27.7808 22.3765,27.4738 22.7545,27.4738 C23.1335,27.4738 23.4395,27.7808 23.4395,28.1588" id="Fill-21" fill="#FFFFFF"></path>
            <path d="M9.5818,28.5999 C9.5818,28.9779 9.2758,29.2849 8.8968,29.2849 C8.5188,29.2849 8.2128,28.9779 8.2128,28.5999 C8.2128,28.2219 8.5188,27.9149 8.8968,27.9149 C9.2758,27.9149 9.5818,28.2219 9.5818,28.5999" id="Fill-23" fill="#FFFFFF"></path>
            <g id="Group-27" transform="translate(0.000000, 1.068000)">
                <mask id="mask-6" fill="white">
                    <use xlink:href="#path-5"></use>
                </mask>
                <g id="Clip-26"></g>
                <path d="M15.9834,18.4993 C14.0614,18.4993 12.5034,16.9413 12.5034,15.0193 C12.5034,13.0973 14.0614,11.5393 15.9834,11.5393 C17.9054,11.5393 19.4634,13.0973 19.4634,15.0193 C19.4634,16.9413 17.9054,18.4993 15.9834,18.4993 M31.9214,11.0133 C31.8384,10.8673 31.7054,10.8243 31.5254,10.8853 C31.2224,10.9943 31.0214,11.0393 30.9244,11.0203 C30.8274,11.0003 30.7274,10.9013 30.6254,10.7233 C30.5324,10.5613 30.4534,10.2733 30.3884,9.8583 C30.2034,8.6733 29.9524,7.8043 29.6374,7.2543 C28.8754,5.9253 27.8084,5.0793 26.4374,4.7143 C25.0654,4.3493 23.7074,4.5523 22.3634,5.3233 C21.3094,5.9273 20.5984,6.7323 20.2304,7.7403 C20.0164,8.3253 19.8874,9.0773 19.8374,9.9863 C19.2094,9.5423 18.4594,9.1023 17.5864,8.6653 C16.0924,7.9193 15.1214,7.3403 14.6734,6.9293 C13.8704,6.2013 13.4684,5.2393 13.4684,4.0443 C13.4684,3.0173 13.7444,2.2053 14.2954,1.6073 C14.8454,1.0103 15.5874,0.7113 16.5214,0.7113 C17.4744,0.7113 18.3324,1.0803 19.0984,1.8173 C19.8644,2.5553 20.3494,3.4753 20.5554,4.5763 C20.6294,5.0063 20.7694,5.2203 20.9754,5.2203 C21.1614,5.2203 21.2454,5.1183 21.2274,4.9123 L21.1994,4.4643 C21.1054,3.9423 21.0594,3.2323 21.0594,2.3353 C21.0594,1.7013 21.0874,1.1593 21.1434,0.7113 C21.1614,0.6373 21.1714,0.5253 21.1714,0.3753 C21.1714,0.1513 21.0774,0.0393 20.8914,0.0393 C20.7234,0.0393 20.6204,0.1323 20.5834,0.3193 C20.5274,0.6373 20.4664,0.8333 20.4014,0.9073 C20.3354,0.9823 20.2004,1.0193 19.9944,1.0193 C19.8084,1.0193 19.5184,0.9453 19.1264,0.7953 C18.0064,0.3663 17.1284,0.1513 16.4934,0.1513 C14.9624,0.1513 13.6974,0.6553 12.6984,1.6633 C11.6994,2.6723 11.2004,3.9513 11.2004,5.5003 C11.2004,6.7143 11.5454,7.7323 12.2364,8.5533 C12.3274,8.6613 12.4284,8.7703 12.5374,8.8793 C11.8274,9.1343 11.0544,9.4853 10.2154,9.9343 C8.7434,10.7243 7.7104,11.1823 7.1164,11.3113 C6.0574,11.5473 5.0414,11.3203 4.0654,10.6303 C3.2264,10.0373 2.7224,9.3443 2.5514,8.5493 C2.3814,7.7553 2.5654,6.9763 3.1044,6.2133 C3.6544,5.4353 4.4514,4.9473 5.4954,4.7473 C6.5394,4.5483 7.5704,4.6823 8.5894,5.1503 C8.9824,5.3373 9.2384,5.3473 9.3574,5.1793 C9.4654,5.0263 9.4304,4.8993 9.2514,4.7953 L8.8694,4.5593 C8.3884,4.3343 7.7824,3.9623 7.0504,3.4453 C6.5314,3.0793 6.1054,2.7433 5.7714,2.4393 C5.7214,2.3813 5.6354,2.3093 5.5134,2.2223 C5.3304,2.0933 5.1854,2.1053 5.0774,2.2573 C4.9804,2.3943 4.9974,2.5323 5.1284,2.6703 C5.3554,2.8993 5.4804,3.0623 5.5034,3.1583 C5.5264,3.2553 5.4794,3.3873 5.3604,3.5553 C5.2524,3.7073 5.0254,3.9013 4.6764,4.1343 C3.6794,4.8023 2.9974,5.3953 2.6314,5.9133 C1.7474,7.1633 1.4294,8.4883 1.6764,9.8853 C1.9234,11.2833 2.6794,12.4293 3.9454,13.3233 C4.9364,14.0243 5.9664,14.3293 7.0364,14.2393 C7.6304,14.1893 8.3324,14.0033 9.1334,13.6893 C9.0854,14.1483 9.0634,14.6463 9.0674,15.1853 C9.0584,15.3313 9.0494,15.4763 9.0514,15.6253 C9.0544,15.8573 9.0774,16.0813 9.1104,16.3023 C9.1194,16.4343 9.1264,16.5643 9.1374,16.7003 C9.2754,18.3653 9.2844,19.4953 9.1664,20.0913 C8.9614,21.1563 8.3474,21.9983 7.3264,22.6193 C6.4494,23.1523 5.6124,23.3393 4.8154,23.1783 C4.0184,23.0183 3.3774,22.5393 2.8924,21.7413 C2.3984,20.9273 2.2674,20.0023 2.4994,18.9643 C2.7324,17.9273 3.2664,17.0353 4.1004,16.2873 C4.4294,16.0003 4.5404,15.7693 4.4334,15.5933 C4.3364,15.4343 4.2054,15.4153 4.0394,15.5383 L3.6704,15.7953 C3.2724,16.1463 2.6904,16.5543 1.9244,17.0203 C1.3824,17.3493 0.9044,17.6073 0.4924,17.7923 C0.4194,17.8153 0.3184,17.8653 0.1904,17.9423 C-0.0006,18.0593 -0.0476,18.1973 0.0484,18.3563 C0.1364,18.5003 0.2694,18.5393 0.4484,18.4743 C0.7484,18.3573 0.9474,18.3073 1.0454,18.3243 C1.1434,18.3413 1.2454,18.4383 1.3524,18.6133 C1.4494,18.7733 1.5354,19.0593 1.6114,19.4713 C1.8264,20.6523 2.0994,21.5143 2.4284,22.0563 C3.2234,23.3653 4.3114,24.1843 5.6924,24.5143 C7.0724,24.8443 8.4254,24.6063 9.7494,23.8013 C10.7864,23.1713 11.4774,22.3473 11.8204,21.3303 C11.9284,21.0103 12.0084,20.6363 12.0654,20.2213 C12.1234,20.2593 12.1784,20.2973 12.2394,20.3353 C12.4404,20.4983 12.6514,20.6553 12.8824,20.7953 C13.2294,21.0063 13.5874,21.1663 13.9564,21.2803 C13.9904,21.2973 14.0214,21.3143 14.0564,21.3313 C15.5594,22.0583 16.5374,22.6243 16.9914,23.0293 C17.8034,23.7473 18.2174,24.7033 18.2334,25.8983 C18.2464,26.9253 17.9814,27.7403 17.4384,28.3453 C16.8964,28.9503 16.1574,29.2583 15.2234,29.2713 C14.2714,29.2833 13.4084,28.9253 12.6324,28.1983 C11.8584,27.4703 11.3604,26.5573 11.1404,25.4583 C11.0604,25.0293 10.9174,24.8173 10.7124,24.8203 C10.5254,24.8223 10.4434,24.9253 10.4644,25.1313 L10.4974,25.5793 C10.5984,26.1003 10.6544,26.8093 10.6654,27.7053 C10.6744,28.3403 10.6534,28.8823 10.6024,29.3313 C10.5854,29.4053 10.5774,29.5183 10.5794,29.6673 C10.5824,29.8913 10.6774,30.0023 10.8634,30.0003 C11.0314,29.9973 11.1334,29.9023 11.1684,29.7163 C11.2204,29.3973 11.2784,29.2003 11.3424,29.1253 C11.4074,29.0493 11.5414,29.0103 11.7474,29.0083 C11.9344,29.0053 12.2244,29.0763 12.6184,29.2203 C13.7444,29.6353 14.6244,29.8393 15.2594,29.8303 C16.7904,29.8103 18.0494,29.2903 19.0344,28.2683 C20.0204,27.2473 20.5024,25.9623 20.4824,24.4123 C20.4664,23.1983 20.1084,22.1853 19.4064,21.3733 C19.1844,21.1153 18.9014,20.8553 18.5704,20.5933 C19.1354,20.3203 19.7364,19.9843 20.3744,19.5843 C21.7884,18.6963 22.7884,18.1683 23.3724,17.9993 C24.4114,17.6913 25.4414,17.8483 26.4624,18.4703 C27.3394,19.0043 27.8904,19.6613 28.1144,20.4423 C28.3384,21.2233 28.2084,22.0133 27.7224,22.8113 C27.2274,23.6243 26.4654,24.1663 25.4374,24.4373 C24.4094,24.7073 23.3714,24.6433 22.3234,24.2463 C21.9184,24.0863 21.6624,24.0953 21.5554,24.2703 C21.4584,24.4303 21.5024,24.5553 21.6874,24.6463 L22.0844,24.8553 C22.5794,25.0473 23.2104,25.3763 23.9754,25.8423 C24.5174,26.1723 24.9664,26.4783 25.3194,26.7583 C25.3734,26.8133 25.4644,26.8793 25.5924,26.9573 C25.7834,27.0743 25.9284,27.0523 26.0254,26.8923 C26.1124,26.7493 26.0854,26.6123 25.9454,26.4843 C25.7034,26.2713 25.5674,26.1173 25.5384,26.0223 C25.5084,25.9273 25.5464,25.7933 25.6534,25.6173 C25.7504,25.4583 25.9644,25.2493 26.2964,24.9923 C27.2454,24.2583 27.8854,23.6203 28.2154,23.0783 C29.0114,21.7703 29.2384,20.4273 28.8964,19.0503 C28.5544,17.6723 27.7214,16.5803 26.3974,15.7753 C25.3604,15.1433 24.3124,14.9093 23.2514,15.0733 C23.0924,15.0973 22.9254,15.1343 22.7534,15.1793 C22.8374,14.3813 22.8524,13.4693 22.7944,12.4373 C22.6984,10.7703 22.7174,9.6393 22.8514,9.0463 C23.0834,7.9873 23.7184,7.1613 24.7554,6.5663 C25.6454,6.0563 26.4874,5.8903 27.2794,6.0713 C28.0724,6.2513 28.7004,6.7473 29.1654,7.5573 C29.6384,8.3833 29.7464,9.3113 29.4874,10.3423 C29.2274,11.3743 28.6714,12.2523 27.8184,12.9783 C27.4824,13.2573 27.3664,13.4853 27.4684,13.6633 C27.5614,13.8253 27.6924,13.8473 27.8614,13.7293 L28.2364,13.4813 C28.6424,13.1403 29.2354,12.7473 30.0134,12.3013 C30.5634,11.9853 31.0474,11.7403 31.4644,11.5663 C31.5374,11.5453 31.6394,11.4973 31.7694,11.4233 C31.9644,11.3123 32.0144,11.1753 31.9214,11.0133" id="Fill-25" fill="#FFFFFF" mask="url(#mask-6)"></path>
            </g>
        </g>
    </g>
</svg>