<?xml version="1.0" encoding="UTF-8"?>
<svg width="67px" height="67px" viewBox="0 0 67 67" version="1.1" xmlns="http://www.w3.org/2000/svg" xmlns:xlink="http://www.w3.org/1999/xlink">
    <!-- Generator: Sketch 52.4 (67378) - http://www.bohemiancoding.com/sketch -->
    <title>desconto</title>
    <desc>Created with Sketch.</desc>
    <g id="Page-1" stroke="none" stroke-width="1" fill="none" fill-rule="evenodd">
        <g id="desconto" fill="#FFFFFF">
            <path d="M25.8473742,25.0386383 C24.6355239,23.8267879 22.68542,23.8267879 21.487499,25.0386383 C20.2756486,26.2504886 20.2756486,28.2005925 21.487499,29.3985135 C22.6993493,30.5964345 24.6494532,30.5964345 25.8473742,29.3985135 C27.0592245,28.1866632 27.0592245,26.2365593 25.8473742,25.0386383 Z" id="Path"></path>
            <path d="M41.1139023,37.5610915 C39.902052,38.7590125 39.9159813,40.7230457 41.1139023,41.9209667 C42.3118233,43.132817 44.2758565,43.132817 45.4737775,41.9209667 C46.6856279,40.7230457 46.6856279,38.7590125 45.4737775,37.5610915 C44.2619272,36.3631705 42.3118233,36.3631705 41.1139023,37.5610915 Z" id="Path"></path>
            <path d="M57.1604719,9.79996881 C44.0808462,-3.26572765 22.8804304,-3.26572765 9.80080457,9.79996881 C-2.7773659,22.3920686 -3.25096258,42.5059979 8.39394387,55.6552703 L8.7282474,55.9338565 C7.46067983,58.6640021 5.28770686,62.034896 1.83323701,63.7342723 C0.691033264,64.2914449 0.955690229,65.9908212 2.20932848,66.1858316 C5.98417256,66.7708628 11.4026757,66.116185 16.4450873,62.299553 L16.5147339,62.3552703 C29.343632,69.9049584 46.1284553,68.1637942 57.1465426,57.1457069 C70.2261684,44.0800104 70.2261684,22.8795946 57.1604719,9.79996881 Z M16.2361476,27.2116112 C16.2361476,23.1163929 19.579183,19.7733576 23.6744012,19.7733576 C27.7696195,19.7733576 31.1126549,23.1163929 31.1126549,27.2116112 C31.1126549,31.3068295 27.7696195,34.6498649 23.6744012,34.6498649 C19.5652536,34.6498649 16.2500769,31.3207588 16.2361476,27.2116112 Z M25.1091206,46.4201351 C24.4683721,47.1862474 23.3261684,47.2976819 22.5600561,46.6569335 C21.7939439,46.016185 21.6825094,44.8739813 22.3232578,44.107869 L41.8521559,20.5951871 C42.4929044,19.8290748 43.6351081,19.7176403 44.4012204,20.3583888 C45.1673326,20.9991372 45.2787672,22.141341 44.6380187,22.9074532 L25.1091206,46.4201351 Z M43.2868753,47.1862474 C39.191657,47.1862474 35.8486216,43.8432121 35.8486216,39.7479938 C35.8486216,35.6527755 39.191657,32.3097401 43.2868753,32.3097401 C47.3820936,32.3097401 50.7251289,35.6527755 50.7251289,39.7479938 C50.7251289,43.8432121 47.3960229,47.1862474 43.2868753,47.1862474 Z" id="Shape" fill-rule="nonzero"></path>
        </g>
    </g>
</svg>