<?xml version="1.0" encoding="UTF-8"?>
<svg width="67px" height="49px" viewBox="0 0 67 49" version="1.1" xmlns="http://www.w3.org/2000/svg" xmlns:xlink="http://www.w3.org/1999/xlink">
    <!-- Generator: Sketch 52.4 (67378) - http://www.bohemiancoding.com/sketch -->
    <title>Shape</title>
    <desc>Created with Sketch.</desc>
    <g id="Page-1" stroke="none" stroke-width="1" fill="none" fill-rule="evenodd">
        <g id="frete-gratis" fill="#FFFFFF" fill-rule="nonzero">
            <path d="M2.35091176,32.3132827 L2.35091176,3.80719118 C2.35091176,2.22316667 3.63496895,0.939 5.21910294,0.939 L33.7105245,0.939 C35.294549,0.939 36.5786062,2.22316667 36.5786062,3.80719118 L36.5786062,32.3133922 C36.5786062,32.8414003 36.1506601,33.2694559 35.6225425,33.2694559 L3.30697549,33.2694559 C2.77885784,33.2694559 2.35091176,32.8414003 2.35091176,32.3132827 Z M25.3586242,42.0788611 C25.3586242,45.3642696 22.6951552,48.0276291 19.4098562,48.0276291 C16.1245572,48.0276291 13.4610882,45.3642696 13.4610882,42.0788611 C13.4610882,38.7933431 16.1245572,36.1300931 19.4098562,36.1300931 C22.6951552,36.1300931 25.3586242,38.7933431 25.3586242,42.0788611 Z M22.3841307,42.0788611 C22.3841307,40.4361569 21.052451,39.1044771 19.4097467,39.1044771 C17.7670425,39.1044771 16.4352533,40.4361569 16.4352533,42.0788611 C16.4352533,43.7215654 17.7670425,45.0533546 19.4097467,45.0533546 C21.052451,45.0533546 22.3841307,43.7215654 22.3841307,42.0788611 Z M14.2862173,36.1299837 L0.956063725,36.1299837 C0.428055556,36.1299837 0,36.5580392 0,37.0860474 L0,39.9866438 C0,40.514652 0.428055556,40.9427075 0.956063725,40.9427075 L11.6408121,40.9427075 C11.9197598,39.0286095 12.8858954,37.3378448 14.2862173,36.1299837 Z M56.4834085,42.0788611 C56.4834085,45.3642696 53.8199395,48.0276291 50.5346405,48.0276291 C47.249232,48.0276291 44.5858725,45.3642696 44.5858725,42.0788611 C44.5858725,38.7933431 47.249232,36.1300931 50.5346405,36.1300931 C53.8199395,36.1299837 56.4834085,38.7933431 56.4834085,42.0788611 Z M53.509134,42.0788611 C53.509134,40.4361569 52.1773448,39.1044771 50.5346405,39.1044771 C48.8918268,39.1044771 47.5602565,40.4361569 47.5602565,42.0788611 C47.5602565,43.7215654 48.8919363,45.0533546 50.5346405,45.0533546 C52.1773448,45.0533546 53.509134,43.7215654 53.509134,42.0788611 Z M67,37.0860474 L67,39.9866438 C67,40.514652 66.5719444,40.9427075 66.0439363,40.9427075 L58.3034657,40.9427075 C57.7498399,37.1457124 54.4820572,34.2178562 50.5348595,34.2178562 C46.5868954,34.2178562 43.3190033,37.1458219 42.7653775,40.9427075 L27.1789003,40.9427075 C26.8998431,39.028719 25.933817,37.3378448 24.5334951,36.1299837 L39.31225,36.1299837 L39.31225,8.78358333 C39.31225,7.72756699 40.1683611,6.87145588 41.2243775,6.87145588 L50.250219,6.87145588 C52.7916209,6.87145588 55.1669461,8.1338366 56.5889444,10.240067 L62.4076536,18.8582157 C63.2611373,20.122348 63.717219,21.6127696 63.717219,23.1381144 L63.717219,36.1299837 L66.0439363,36.1299837 C66.5719444,36.1299837 67,36.5580392 67,37.0860474 Z M57.3012026,19.0789216 L52.6483154,12.4672696 C52.4692108,12.2128448 52.1775637,12.0614379 51.8664297,12.0614379 L44.6086438,12.0614379 C44.0807451,12.0614379 43.6525801,12.4894935 43.6525801,13.0175016 L43.6525801,19.6291536 C43.6525801,20.1572712 44.0806356,20.5852173 44.6086438,20.5852173 L56.5195359,20.5852173 C57.2939771,20.5852173 57.7469935,19.7123562 57.3012026,19.0789216 Z" id="Shape"></path>
        </g>
    </g>
</svg>